<mxfile host="app.diagrams.net" modified="2022-10-30T07:10:54.598Z" agent="5.0 (Macintosh; Intel Mac OS X 10_15_7) AppleWebKit/537.36 (KHTML, like Gecko) Chrome/106.0.0.0 Safari/537.36" etag="Y5JYTSKcXjVG4P10eH4y" version="20.5.1" type="github">
  <diagram id="wqAkM968b38m-hiAUqtR" name="第 1 页">
    <mxGraphModel dx="1073" dy="623" grid="1" gridSize="10" guides="1" tooltips="1" connect="1" arrows="1" fold="1" page="1" pageScale="1" pageWidth="827" pageHeight="1169" math="0" shadow="0">
      <root>
        <mxCell id="0" />
        <mxCell id="1" parent="0" />
        <mxCell id="8WJbZ5vt_U3ghZ7-BwTl-287" value="" style="rounded=0;whiteSpace=wrap;html=1;" vertex="1" parent="1">
          <mxGeometry x="1740" y="1890" width="670" height="330" as="geometry" />
        </mxCell>
        <mxCell id="8WJbZ5vt_U3ghZ7-BwTl-240" style="edgeStyle=orthogonalEdgeStyle;rounded=0;orthogonalLoop=1;jettySize=auto;html=1;entryX=0;entryY=0.5;entryDx=0;entryDy=0;fontColor=#000000;exitX=0.5;exitY=1;exitDx=0;exitDy=0;" edge="1" parent="1" source="8WJbZ5vt_U3ghZ7-BwTl-215" target="8WJbZ5vt_U3ghZ7-BwTl-239">
          <mxGeometry relative="1" as="geometry" />
        </mxCell>
        <mxCell id="8WJbZ5vt_U3ghZ7-BwTl-215" value="" style="rounded=0;whiteSpace=wrap;html=1;fillColor=#b1ddf0;strokeColor=#10739e;" vertex="1" parent="1">
          <mxGeometry x="1150" y="1230" width="140" height="290" as="geometry" />
        </mxCell>
        <mxCell id="8WJbZ5vt_U3ghZ7-BwTl-207" value="" style="rounded=0;whiteSpace=wrap;html=1;" vertex="1" parent="1">
          <mxGeometry x="64" y="2000" width="1010" height="700" as="geometry" />
        </mxCell>
        <mxCell id="8WJbZ5vt_U3ghZ7-BwTl-205" value="" style="rounded=0;whiteSpace=wrap;html=1;" vertex="1" parent="1">
          <mxGeometry x="64" y="2740" width="1000" height="1070" as="geometry" />
        </mxCell>
        <mxCell id="8WJbZ5vt_U3ghZ7-BwTl-198" value="" style="rounded=0;whiteSpace=wrap;html=1;fillColor=#d5e8d4;strokeColor=#82b366;" vertex="1" parent="1">
          <mxGeometry x="727.25" y="3510" width="324" height="290" as="geometry" />
        </mxCell>
        <mxCell id="8WJbZ5vt_U3ghZ7-BwTl-154" value="" style="rounded=0;whiteSpace=wrap;html=1;" vertex="1" parent="1">
          <mxGeometry x="84" y="3120" width="640" height="320" as="geometry" />
        </mxCell>
        <mxCell id="8WJbZ5vt_U3ghZ7-BwTl-109" value="" style="rounded=0;whiteSpace=wrap;html=1;fillColor=#f5f5f5;fontColor=#333333;strokeColor=#666666;" vertex="1" parent="1">
          <mxGeometry x="95" y="2760" width="160" height="290" as="geometry" />
        </mxCell>
        <mxCell id="8WJbZ5vt_U3ghZ7-BwTl-100" value="" style="rounded=0;whiteSpace=wrap;html=1;" vertex="1" parent="1">
          <mxGeometry x="85.25" y="2130" width="960" height="330" as="geometry" />
        </mxCell>
        <mxCell id="8WJbZ5vt_U3ghZ7-BwTl-99" value="" style="rounded=0;whiteSpace=wrap;html=1;" vertex="1" parent="1">
          <mxGeometry x="85.25" y="2510" width="960" height="170" as="geometry" />
        </mxCell>
        <mxCell id="8WJbZ5vt_U3ghZ7-BwTl-67" value="" style="rounded=0;whiteSpace=wrap;html=1;" vertex="1" parent="1">
          <mxGeometry x="180" y="1210" width="586" height="280" as="geometry" />
        </mxCell>
        <mxCell id="8WJbZ5vt_U3ghZ7-BwTl-38" value="" style="rounded=0;whiteSpace=wrap;html=1;" vertex="1" parent="1">
          <mxGeometry x="180" y="570" width="530" height="490" as="geometry" />
        </mxCell>
        <mxCell id="8WJbZ5vt_U3ghZ7-BwTl-7" style="edgeStyle=orthogonalEdgeStyle;rounded=0;orthogonalLoop=1;jettySize=auto;html=1;entryX=0;entryY=0.5;entryDx=0;entryDy=0;" edge="1" parent="1" source="8WJbZ5vt_U3ghZ7-BwTl-1" target="8WJbZ5vt_U3ghZ7-BwTl-3">
          <mxGeometry relative="1" as="geometry" />
        </mxCell>
        <mxCell id="8WJbZ5vt_U3ghZ7-BwTl-8" style="edgeStyle=orthogonalEdgeStyle;rounded=0;orthogonalLoop=1;jettySize=auto;html=1;entryX=0;entryY=0.5;entryDx=0;entryDy=0;" edge="1" parent="1" source="8WJbZ5vt_U3ghZ7-BwTl-1" target="8WJbZ5vt_U3ghZ7-BwTl-6">
          <mxGeometry relative="1" as="geometry" />
        </mxCell>
        <mxCell id="8WJbZ5vt_U3ghZ7-BwTl-9" style="edgeStyle=orthogonalEdgeStyle;rounded=0;orthogonalLoop=1;jettySize=auto;html=1;entryX=0;entryY=0.5;entryDx=0;entryDy=0;" edge="1" parent="1" source="8WJbZ5vt_U3ghZ7-BwTl-1" target="8WJbZ5vt_U3ghZ7-BwTl-5">
          <mxGeometry relative="1" as="geometry" />
        </mxCell>
        <mxCell id="8WJbZ5vt_U3ghZ7-BwTl-11" style="edgeStyle=orthogonalEdgeStyle;rounded=0;orthogonalLoop=1;jettySize=auto;html=1;" edge="1" parent="1" source="8WJbZ5vt_U3ghZ7-BwTl-1" target="8WJbZ5vt_U3ghZ7-BwTl-10">
          <mxGeometry relative="1" as="geometry" />
        </mxCell>
        <mxCell id="8WJbZ5vt_U3ghZ7-BwTl-13" style="edgeStyle=orthogonalEdgeStyle;rounded=0;orthogonalLoop=1;jettySize=auto;html=1;curved=1;" edge="1" parent="1" target="8WJbZ5vt_U3ghZ7-BwTl-12">
          <mxGeometry relative="1" as="geometry">
            <mxPoint x="242" y="170" as="sourcePoint" />
          </mxGeometry>
        </mxCell>
        <mxCell id="8WJbZ5vt_U3ghZ7-BwTl-14" value="打包成项目" style="edgeLabel;html=1;align=center;verticalAlign=middle;resizable=0;points=[];" vertex="1" connectable="0" parent="8WJbZ5vt_U3ghZ7-BwTl-13">
          <mxGeometry x="-0.1727" y="-1" relative="1" as="geometry">
            <mxPoint y="20" as="offset" />
          </mxGeometry>
        </mxCell>
        <mxCell id="8WJbZ5vt_U3ghZ7-BwTl-1" value="Maven聚合工程" style="rounded=1;whiteSpace=wrap;html=1;fillColor=#dae8fc;strokeColor=#6c8ebf;" vertex="1" parent="1">
          <mxGeometry x="213" y="110" width="205" height="60" as="geometry" />
        </mxCell>
        <mxCell id="8WJbZ5vt_U3ghZ7-BwTl-3" value="模块1" style="rounded=1;whiteSpace=wrap;html=1;fillColor=#d5e8d4;strokeColor=#82b366;" vertex="1" parent="1">
          <mxGeometry x="350" y="220" width="120" height="60" as="geometry" />
        </mxCell>
        <mxCell id="8WJbZ5vt_U3ghZ7-BwTl-5" value="模块3" style="rounded=1;whiteSpace=wrap;html=1;fillColor=#d5e8d4;strokeColor=#82b366;" vertex="1" parent="1">
          <mxGeometry x="350" y="360" width="120" height="60" as="geometry" />
        </mxCell>
        <mxCell id="8WJbZ5vt_U3ghZ7-BwTl-6" value="模块2" style="rounded=1;whiteSpace=wrap;html=1;fillColor=#d5e8d4;strokeColor=#82b366;" vertex="1" parent="1">
          <mxGeometry x="350" y="290" width="120" height="60" as="geometry" />
        </mxCell>
        <mxCell id="8WJbZ5vt_U3ghZ7-BwTl-10" value="公共模块" style="rounded=1;whiteSpace=wrap;html=1;fillColor=#d5e8d4;strokeColor=#82b366;" vertex="1" parent="1">
          <mxGeometry x="255.5" y="430" width="120" height="60" as="geometry" />
        </mxCell>
        <mxCell id="8WJbZ5vt_U3ghZ7-BwTl-12" value="项目" style="rounded=1;whiteSpace=wrap;html=1;fillColor=#e1d5e7;strokeColor=#9673a6;" vertex="1" parent="1">
          <mxGeometry x="212" y="510" width="60" height="30" as="geometry" />
        </mxCell>
        <mxCell id="8WJbZ5vt_U3ghZ7-BwTl-27" style="edgeStyle=orthogonalEdgeStyle;rounded=0;orthogonalLoop=1;jettySize=auto;html=1;entryX=0.5;entryY=0;entryDx=0;entryDy=0;" edge="1" parent="1" source="8WJbZ5vt_U3ghZ7-BwTl-15" target="8WJbZ5vt_U3ghZ7-BwTl-21">
          <mxGeometry relative="1" as="geometry" />
        </mxCell>
        <mxCell id="8WJbZ5vt_U3ghZ7-BwTl-28" style="edgeStyle=orthogonalEdgeStyle;rounded=0;orthogonalLoop=1;jettySize=auto;html=1;entryX=0.5;entryY=0;entryDx=0;entryDy=0;" edge="1" parent="1" source="8WJbZ5vt_U3ghZ7-BwTl-15" target="8WJbZ5vt_U3ghZ7-BwTl-20">
          <mxGeometry relative="1" as="geometry" />
        </mxCell>
        <mxCell id="8WJbZ5vt_U3ghZ7-BwTl-15" value="ECS" style="rounded=1;whiteSpace=wrap;html=1;fillColor=#fff2cc;strokeColor=#d6b656;" vertex="1" parent="1">
          <mxGeometry x="320" y="720" width="117.5" height="60" as="geometry" />
        </mxCell>
        <mxCell id="8WJbZ5vt_U3ghZ7-BwTl-16" value="Elastic Compute Service" style="text;html=1;strokeColor=none;fillColor=none;align=center;verticalAlign=middle;whiteSpace=wrap;rounded=0;" vertex="1" parent="1">
          <mxGeometry x="377.5" y="690" width="150" height="30" as="geometry" />
        </mxCell>
        <mxCell id="8WJbZ5vt_U3ghZ7-BwTl-17" value="Nginx" style="text;html=1;strokeColor=none;fillColor=none;align=center;verticalAlign=middle;whiteSpace=wrap;rounded=0;" vertex="1" parent="1">
          <mxGeometry x="317.5" y="750" width="60" height="30" as="geometry" />
        </mxCell>
        <mxCell id="8WJbZ5vt_U3ghZ7-BwTl-19" value="为什么不用阿帕奇？&lt;br&gt;因为多线程模型，Nginx性能要好于阿帕奇" style="text;html=1;strokeColor=none;fillColor=none;align=center;verticalAlign=middle;whiteSpace=wrap;rounded=0;" vertex="1" parent="1">
          <mxGeometry x="175" y="730" width="150" height="40" as="geometry" />
        </mxCell>
        <mxCell id="8WJbZ5vt_U3ghZ7-BwTl-20" value="ECS" style="rounded=1;whiteSpace=wrap;html=1;fillColor=#fff2cc;strokeColor=#d6b656;" vertex="1" parent="1">
          <mxGeometry x="410" y="825" width="117.5" height="60" as="geometry" />
        </mxCell>
        <mxCell id="8WJbZ5vt_U3ghZ7-BwTl-21" value="ECS" style="rounded=1;whiteSpace=wrap;html=1;fillColor=#fff2cc;strokeColor=#d6b656;" vertex="1" parent="1">
          <mxGeometry x="217.5" y="825" width="117.5" height="60" as="geometry" />
        </mxCell>
        <mxCell id="8WJbZ5vt_U3ghZ7-BwTl-22" value="ECS" style="rounded=1;whiteSpace=wrap;html=1;fillColor=#fff2cc;strokeColor=#d6b656;" vertex="1" parent="1">
          <mxGeometry x="572.5" y="720" width="117.5" height="60" as="geometry" />
        </mxCell>
        <mxCell id="8WJbZ5vt_U3ghZ7-BwTl-23" value="Nginx" style="text;html=1;strokeColor=none;fillColor=none;align=center;verticalAlign=middle;whiteSpace=wrap;rounded=0;" vertex="1" parent="1">
          <mxGeometry x="570" y="750" width="60" height="30" as="geometry" />
        </mxCell>
        <mxCell id="8WJbZ5vt_U3ghZ7-BwTl-25" style="edgeStyle=orthogonalEdgeStyle;rounded=0;orthogonalLoop=1;jettySize=auto;html=1;entryX=0.5;entryY=0;entryDx=0;entryDy=0;" edge="1" parent="1" source="8WJbZ5vt_U3ghZ7-BwTl-24" target="8WJbZ5vt_U3ghZ7-BwTl-15">
          <mxGeometry relative="1" as="geometry" />
        </mxCell>
        <mxCell id="8WJbZ5vt_U3ghZ7-BwTl-26" style="edgeStyle=orthogonalEdgeStyle;rounded=0;orthogonalLoop=1;jettySize=auto;html=1;exitX=0.5;exitY=1;exitDx=0;exitDy=0;" edge="1" parent="1" source="8WJbZ5vt_U3ghZ7-BwTl-24" target="8WJbZ5vt_U3ghZ7-BwTl-22">
          <mxGeometry relative="1" as="geometry" />
        </mxCell>
        <mxCell id="8WJbZ5vt_U3ghZ7-BwTl-24" value="SLB（云服务提供）" style="rounded=1;whiteSpace=wrap;html=1;fillColor=#f8cecc;strokeColor=#b85450;" vertex="1" parent="1">
          <mxGeometry x="420" y="590" width="117.5" height="60" as="geometry" />
        </mxCell>
        <mxCell id="8WJbZ5vt_U3ghZ7-BwTl-29" value="请求转发" style="text;html=1;strokeColor=none;fillColor=none;align=center;verticalAlign=middle;whiteSpace=wrap;rounded=0;" vertex="1" parent="1">
          <mxGeometry x="392.5" y="780" width="60" height="30" as="geometry" />
        </mxCell>
        <mxCell id="8WJbZ5vt_U3ghZ7-BwTl-30" value="项目" style="rounded=1;whiteSpace=wrap;html=1;fillColor=#e1d5e7;strokeColor=#9673a6;" vertex="1" parent="1">
          <mxGeometry x="200" y="855" width="60" height="30" as="geometry" />
        </mxCell>
        <mxCell id="8WJbZ5vt_U3ghZ7-BwTl-31" value="项目" style="rounded=1;whiteSpace=wrap;html=1;fillColor=#e1d5e7;strokeColor=#9673a6;" vertex="1" parent="1">
          <mxGeometry x="392.5" y="855" width="60" height="30" as="geometry" />
        </mxCell>
        <mxCell id="8WJbZ5vt_U3ghZ7-BwTl-32" value="高可用&lt;br&gt;&lt;br&gt;高性能&lt;br&gt;&lt;br&gt;高并发&lt;br&gt;" style="rounded=1;whiteSpace=wrap;html=1;" vertex="1" parent="1">
          <mxGeometry x="60" y="590" width="100" height="120" as="geometry" />
        </mxCell>
        <mxCell id="8WJbZ5vt_U3ghZ7-BwTl-35" value="一台请求转发机器存在单点问题" style="shape=singleArrow;whiteSpace=wrap;html=1;" vertex="1" parent="1">
          <mxGeometry x="460" y="705" width="100" height="90" as="geometry" />
        </mxCell>
        <mxCell id="8WJbZ5vt_U3ghZ7-BwTl-37" value="&lt;b&gt;由云服务SLB直接转发ESC，通过公网转发请求，也是可以的，但是一般我们是需要在Nginx上做自己的业务处理和静态资源的处理&lt;/b&gt;" style="text;html=1;strokeColor=none;fillColor=none;align=center;verticalAlign=middle;whiteSpace=wrap;rounded=0;" vertex="1" parent="1">
          <mxGeometry x="204" y="570" width="160" height="110" as="geometry" />
        </mxCell>
        <mxCell id="8WJbZ5vt_U3ghZ7-BwTl-39" value="集群架构" style="text;html=1;strokeColor=none;fillColor=none;align=center;verticalAlign=middle;whiteSpace=wrap;rounded=0;" vertex="1" parent="1">
          <mxGeometry x="630" y="1010" width="60" height="30" as="geometry" />
        </mxCell>
        <mxCell id="8WJbZ5vt_U3ghZ7-BwTl-40" value="随着业务发展，用户量增大，通过加机器来解决" style="shape=singleArrow;direction=south;whiteSpace=wrap;html=1;" vertex="1" parent="1">
          <mxGeometry x="317.5" y="900" width="142.5" height="70" as="geometry" />
        </mxCell>
        <mxCell id="8WJbZ5vt_U3ghZ7-BwTl-41" value="ECS" style="rounded=1;whiteSpace=wrap;html=1;fillColor=#fff2cc;strokeColor=#d6b656;" vertex="1" parent="1">
          <mxGeometry x="452.5" y="980" width="117.5" height="60" as="geometry" />
        </mxCell>
        <mxCell id="8WJbZ5vt_U3ghZ7-BwTl-42" value="ECS" style="rounded=1;whiteSpace=wrap;html=1;fillColor=#fff2cc;strokeColor=#d6b656;" vertex="1" parent="1">
          <mxGeometry x="260" y="980" width="117.5" height="60" as="geometry" />
        </mxCell>
        <mxCell id="8WJbZ5vt_U3ghZ7-BwTl-43" value="项目" style="rounded=1;whiteSpace=wrap;html=1;fillColor=#e1d5e7;strokeColor=#9673a6;" vertex="1" parent="1">
          <mxGeometry x="242.5" y="1010" width="60" height="30" as="geometry" />
        </mxCell>
        <mxCell id="8WJbZ5vt_U3ghZ7-BwTl-44" value="项目" style="rounded=1;whiteSpace=wrap;html=1;fillColor=#e1d5e7;strokeColor=#9673a6;" vertex="1" parent="1">
          <mxGeometry x="435" y="1010" width="60" height="30" as="geometry" />
        </mxCell>
        <mxCell id="8WJbZ5vt_U3ghZ7-BwTl-47" value="随着业务量的膨胀，通过加机器的效果不是很明显了，且所有的业务写在一个项目中，已经变得难以维护&lt;br&gt;&lt;br&gt;就需要对业务进行模块拆分" style="shape=singleArrow;direction=south;whiteSpace=wrap;html=1;" vertex="1" parent="1">
          <mxGeometry x="186.25" y="1080" width="180" height="110" as="geometry" />
        </mxCell>
        <mxCell id="8WJbZ5vt_U3ghZ7-BwTl-49" value="公司产品" style="rounded=1;whiteSpace=wrap;html=1;fillColor=#dae8fc;strokeColor=#6c8ebf;" vertex="1" parent="1">
          <mxGeometry x="298" y="1230" width="438" height="60" as="geometry" />
        </mxCell>
        <mxCell id="8WJbZ5vt_U3ghZ7-BwTl-50" value="微服务1" style="rounded=1;whiteSpace=wrap;html=1;fillColor=#d5e8d4;strokeColor=#82b366;" vertex="1" parent="1">
          <mxGeometry x="300" y="1320" width="77.5" height="60" as="geometry" />
        </mxCell>
        <mxCell id="8WJbZ5vt_U3ghZ7-BwTl-51" value="微服务3" style="rounded=1;whiteSpace=wrap;html=1;fillColor=#d5e8d4;strokeColor=#82b366;" vertex="1" parent="1">
          <mxGeometry x="651" y="1320" width="85" height="60" as="geometry" />
        </mxCell>
        <mxCell id="8WJbZ5vt_U3ghZ7-BwTl-52" value="微服务2" style="rounded=1;whiteSpace=wrap;html=1;fillColor=#d5e8d4;strokeColor=#82b366;" vertex="1" parent="1">
          <mxGeometry x="475.5" y="1320" width="86" height="60" as="geometry" />
        </mxCell>
        <mxCell id="8WJbZ5vt_U3ghZ7-BwTl-53" value="" style="shape=doubleArrow;whiteSpace=wrap;html=1;fillColor=#ffe6cc;strokeColor=#d79b00;" vertex="1" parent="1">
          <mxGeometry x="398.5" y="1320" width="47.5" height="60" as="geometry" />
        </mxCell>
        <mxCell id="8WJbZ5vt_U3ghZ7-BwTl-54" value="" style="shape=doubleArrow;whiteSpace=wrap;html=1;fillColor=#ffe6cc;strokeColor=#d79b00;" vertex="1" parent="1">
          <mxGeometry x="582.25" y="1320" width="47.5" height="60" as="geometry" />
        </mxCell>
        <mxCell id="8WJbZ5vt_U3ghZ7-BwTl-58" style="edgeStyle=orthogonalEdgeStyle;rounded=0;orthogonalLoop=1;jettySize=auto;html=1;entryX=0.5;entryY=1;entryDx=0;entryDy=0;" edge="1" parent="1" source="8WJbZ5vt_U3ghZ7-BwTl-55" target="8WJbZ5vt_U3ghZ7-BwTl-50">
          <mxGeometry relative="1" as="geometry" />
        </mxCell>
        <mxCell id="8WJbZ5vt_U3ghZ7-BwTl-55" value="组1" style="rounded=1;whiteSpace=wrap;html=1;fillColor=#d5e8d4;strokeColor=#82b366;" vertex="1" parent="1">
          <mxGeometry x="300" y="1430" width="76" height="40" as="geometry" />
        </mxCell>
        <mxCell id="8WJbZ5vt_U3ghZ7-BwTl-60" style="edgeStyle=orthogonalEdgeStyle;rounded=0;orthogonalLoop=1;jettySize=auto;html=1;entryX=0.5;entryY=1;entryDx=0;entryDy=0;" edge="1" parent="1" source="8WJbZ5vt_U3ghZ7-BwTl-56" target="8WJbZ5vt_U3ghZ7-BwTl-51">
          <mxGeometry relative="1" as="geometry" />
        </mxCell>
        <mxCell id="8WJbZ5vt_U3ghZ7-BwTl-56" value="组1" style="rounded=1;whiteSpace=wrap;html=1;fillColor=#d5e8d4;strokeColor=#82b366;" vertex="1" parent="1">
          <mxGeometry x="656" y="1430" width="76" height="40" as="geometry" />
        </mxCell>
        <mxCell id="8WJbZ5vt_U3ghZ7-BwTl-59" style="edgeStyle=orthogonalEdgeStyle;rounded=0;orthogonalLoop=1;jettySize=auto;html=1;" edge="1" parent="1" source="8WJbZ5vt_U3ghZ7-BwTl-57" target="8WJbZ5vt_U3ghZ7-BwTl-52">
          <mxGeometry relative="1" as="geometry" />
        </mxCell>
        <mxCell id="8WJbZ5vt_U3ghZ7-BwTl-57" value="组1" style="rounded=1;whiteSpace=wrap;html=1;fillColor=#d5e8d4;strokeColor=#82b366;" vertex="1" parent="1">
          <mxGeometry x="480.5" y="1430" width="76" height="40" as="geometry" />
        </mxCell>
        <mxCell id="8WJbZ5vt_U3ghZ7-BwTl-62" value="" style="shape=doubleArrow;whiteSpace=wrap;html=1;fillColor=#ffe6cc;strokeColor=#d79b00;" vertex="1" parent="1">
          <mxGeometry x="402.88" y="1420" width="47.5" height="60" as="geometry" />
        </mxCell>
        <mxCell id="8WJbZ5vt_U3ghZ7-BwTl-63" value="" style="shape=doubleArrow;whiteSpace=wrap;html=1;fillColor=#ffe6cc;strokeColor=#d79b00;" vertex="1" parent="1">
          <mxGeometry x="586.63" y="1420" width="47.5" height="60" as="geometry" />
        </mxCell>
        <mxCell id="8WJbZ5vt_U3ghZ7-BwTl-66" style="edgeStyle=orthogonalEdgeStyle;curved=1;rounded=0;orthogonalLoop=1;jettySize=auto;html=1;entryX=0;entryY=0;entryDx=9.5;entryDy=0;entryPerimeter=0;" edge="1" parent="1" source="8WJbZ5vt_U3ghZ7-BwTl-64" target="8WJbZ5vt_U3ghZ7-BwTl-53">
          <mxGeometry relative="1" as="geometry" />
        </mxCell>
        <mxCell id="8WJbZ5vt_U3ghZ7-BwTl-64" value="服务和服务之间的调用，组与组之间的沟通协调" style="text;html=1;strokeColor=none;fillColor=none;align=center;verticalAlign=middle;whiteSpace=wrap;rounded=0;" vertex="1" parent="1">
          <mxGeometry x="181" y="1280" width="90" height="70" as="geometry" />
        </mxCell>
        <mxCell id="8WJbZ5vt_U3ghZ7-BwTl-68" value="微服务架构" style="text;html=1;strokeColor=none;fillColor=none;align=center;verticalAlign=middle;whiteSpace=wrap;rounded=0;" vertex="1" parent="1">
          <mxGeometry x="181" y="1210" width="70" height="30" as="geometry" />
        </mxCell>
        <mxCell id="8WJbZ5vt_U3ghZ7-BwTl-69" value="SLB + Nginx&lt;br&gt;前端服务" style="rounded=1;whiteSpace=wrap;html=1;fillColor=#d5e8d4;strokeColor=#82b366;" vertex="1" parent="1">
          <mxGeometry x="84" y="2017" width="959.38" height="60" as="geometry" />
        </mxCell>
        <mxCell id="8WJbZ5vt_U3ghZ7-BwTl-71" value="网关&lt;br&gt;gateway" style="rounded=1;whiteSpace=wrap;html=1;fillColor=#dae8fc;strokeColor=#6c8ebf;gradientColor=#7ea6e0;" vertex="1" parent="1">
          <mxGeometry x="102" y="2140" width="930" height="50" as="geometry" />
        </mxCell>
        <mxCell id="8WJbZ5vt_U3ghZ7-BwTl-72" value="负载均衡&lt;br&gt;Ribbon" style="rounded=1;whiteSpace=wrap;html=1;fillColor=#647687;fontColor=#ffffff;strokeColor=#314354;" vertex="1" parent="1">
          <mxGeometry x="101.5" y="2210" width="120" height="60" as="geometry" />
        </mxCell>
        <mxCell id="8WJbZ5vt_U3ghZ7-BwTl-73" value="请求代理&lt;br&gt;Feign" style="rounded=1;whiteSpace=wrap;html=1;fillColor=#647687;fontColor=#ffffff;strokeColor=#314354;" vertex="1" parent="1">
          <mxGeometry x="101.5" y="2300" width="120" height="60" as="geometry" />
        </mxCell>
        <mxCell id="8WJbZ5vt_U3ghZ7-BwTl-74" value="限流降级熔断&lt;br&gt;Hystrix" style="rounded=1;whiteSpace=wrap;html=1;fillColor=#647687;fontColor=#ffffff;strokeColor=#314354;" vertex="1" parent="1">
          <mxGeometry x="101.5" y="2390" width="120" height="60" as="geometry" />
        </mxCell>
        <mxCell id="8WJbZ5vt_U3ghZ7-BwTl-75" value="注册中心&lt;br&gt;配置中心&lt;br&gt;Nacos" style="rounded=1;whiteSpace=wrap;html=1;fillColor=#60a917;fontColor=#ffffff;strokeColor=#2D7600;" vertex="1" parent="1">
          <mxGeometry x="244" y="2210" width="120" height="240" as="geometry" />
        </mxCell>
        <mxCell id="8WJbZ5vt_U3ghZ7-BwTl-76" value="用户中心" style="rounded=1;whiteSpace=wrap;html=1;fillColor=#f0a30a;fontColor=#000000;strokeColor=#BD7000;" vertex="1" parent="1">
          <mxGeometry x="389" y="2210" width="120" height="60" as="geometry" />
        </mxCell>
        <mxCell id="8WJbZ5vt_U3ghZ7-BwTl-77" value="定时任务调度" style="rounded=1;whiteSpace=wrap;html=1;fillColor=#fa6800;fontColor=#000000;strokeColor=#C73500;" vertex="1" parent="1">
          <mxGeometry x="535" y="2390" width="120" height="60" as="geometry" />
        </mxCell>
        <mxCell id="8WJbZ5vt_U3ghZ7-BwTl-78" value="交易中心" style="rounded=1;whiteSpace=wrap;html=1;fillColor=#f0a30a;fontColor=#000000;strokeColor=#BD7000;" vertex="1" parent="1">
          <mxGeometry x="535" y="2300" width="120" height="60" as="geometry" />
        </mxCell>
        <mxCell id="8WJbZ5vt_U3ghZ7-BwTl-79" value="商品中心" style="rounded=1;whiteSpace=wrap;html=1;fillColor=#f0a30a;fontColor=#000000;strokeColor=#BD7000;" vertex="1" parent="1">
          <mxGeometry x="535" y="2210" width="120" height="60" as="geometry" />
        </mxCell>
        <mxCell id="8WJbZ5vt_U3ghZ7-BwTl-80" value="消息服务" style="rounded=1;whiteSpace=wrap;html=1;fillColor=#fa6800;fontColor=#000000;strokeColor=#C73500;" vertex="1" parent="1">
          <mxGeometry x="389" y="2390" width="120" height="60" as="geometry" />
        </mxCell>
        <mxCell id="8WJbZ5vt_U3ghZ7-BwTl-81" value="支付中心" style="rounded=1;whiteSpace=wrap;html=1;fillColor=#f0a30a;fontColor=#000000;strokeColor=#BD7000;" vertex="1" parent="1">
          <mxGeometry x="389" y="2300" width="120" height="60" as="geometry" />
        </mxCell>
        <mxCell id="8WJbZ5vt_U3ghZ7-BwTl-82" value="链路追踪/监控" style="rounded=1;whiteSpace=wrap;html=1;fillColor=#fa6800;fontColor=#000000;strokeColor=#C73500;" vertex="1" parent="1">
          <mxGeometry x="684" y="2390" width="120" height="60" as="geometry" />
        </mxCell>
        <mxCell id="8WJbZ5vt_U3ghZ7-BwTl-83" value="检索中心" style="rounded=1;whiteSpace=wrap;html=1;fillColor=#f0a30a;fontColor=#000000;strokeColor=#BD7000;" vertex="1" parent="1">
          <mxGeometry x="684" y="2300" width="120" height="60" as="geometry" />
        </mxCell>
        <mxCell id="8WJbZ5vt_U3ghZ7-BwTl-84" value="优惠中心" style="rounded=1;whiteSpace=wrap;html=1;fillColor=#f0a30a;fontColor=#000000;strokeColor=#BD7000;" vertex="1" parent="1">
          <mxGeometry x="684" y="2210" width="120" height="60" as="geometry" />
        </mxCell>
        <mxCell id="8WJbZ5vt_U3ghZ7-BwTl-85" value="通信" style="rounded=1;whiteSpace=wrap;html=1;fillColor=#008a00;fontColor=#ffffff;strokeColor=#005700;" vertex="1" parent="1">
          <mxGeometry x="824" y="2210" width="70" height="240" as="geometry" />
        </mxCell>
        <mxCell id="8WJbZ5vt_U3ghZ7-BwTl-86" value="MQ" style="rounded=1;whiteSpace=wrap;html=1;fillColor=#fad9d5;strokeColor=#ae4132;" vertex="1" parent="1">
          <mxGeometry x="914" y="2210" width="120" height="60" as="geometry" />
        </mxCell>
        <mxCell id="8WJbZ5vt_U3ghZ7-BwTl-87" value="Http&lt;br&gt;Https" style="rounded=1;whiteSpace=wrap;html=1;fillColor=#fad9d5;strokeColor=#ae4132;" vertex="1" parent="1">
          <mxGeometry x="914" y="2300" width="120" height="60" as="geometry" />
        </mxCell>
        <mxCell id="8WJbZ5vt_U3ghZ7-BwTl-88" value="RPC" style="rounded=1;whiteSpace=wrap;html=1;fillColor=#fad9d5;strokeColor=#ae4132;" vertex="1" parent="1">
          <mxGeometry x="914" y="2390" width="120" height="60" as="geometry" />
        </mxCell>
        <mxCell id="8WJbZ5vt_U3ghZ7-BwTl-89" value="" style="shape=doubleArrow;direction=south;whiteSpace=wrap;html=1;fillColor=#e51400;fontColor=#ffffff;strokeColor=#B20000;" vertex="1" parent="1">
          <mxGeometry x="254.99" y="2077" width="60" height="50" as="geometry" />
        </mxCell>
        <mxCell id="8WJbZ5vt_U3ghZ7-BwTl-90" value="" style="shape=doubleArrow;direction=south;whiteSpace=wrap;html=1;fillColor=#e51400;fontColor=#ffffff;strokeColor=#B20000;" vertex="1" parent="1">
          <mxGeometry x="803.99" y="2077" width="60" height="50" as="geometry" />
        </mxCell>
        <mxCell id="8WJbZ5vt_U3ghZ7-BwTl-93" value="NqSQL" style="rounded=1;whiteSpace=wrap;html=1;fillColor=#f0a30a;fontColor=#000000;strokeColor=#BD7000;" vertex="1" parent="1">
          <mxGeometry x="391.5" y="2520" width="120" height="60" as="geometry" />
        </mxCell>
        <mxCell id="8WJbZ5vt_U3ghZ7-BwTl-94" value="关系型数据库" style="rounded=1;whiteSpace=wrap;html=1;fillColor=#f0a30a;fontColor=#000000;strokeColor=#BD7000;" vertex="1" parent="1">
          <mxGeometry x="165.25" y="2520" width="120" height="60" as="geometry" />
        </mxCell>
        <mxCell id="8WJbZ5vt_U3ghZ7-BwTl-95" value="CI/CD" style="rounded=1;whiteSpace=wrap;html=1;fillColor=#f0a30a;fontColor=#000000;strokeColor=#BD7000;" vertex="1" parent="1">
          <mxGeometry x="624" y="2520" width="120" height="60" as="geometry" />
        </mxCell>
        <mxCell id="8WJbZ5vt_U3ghZ7-BwTl-96" value="OSS&lt;br&gt;对象存储" style="rounded=1;whiteSpace=wrap;html=1;fillColor=#f0a30a;fontColor=#000000;strokeColor=#BD7000;" vertex="1" parent="1">
          <mxGeometry x="389" y="2600" width="120" height="60" as="geometry" />
        </mxCell>
        <mxCell id="8WJbZ5vt_U3ghZ7-BwTl-97" value="ECS" style="rounded=1;whiteSpace=wrap;html=1;fillColor=#f0a30a;fontColor=#000000;strokeColor=#BD7000;" vertex="1" parent="1">
          <mxGeometry x="165.25" y="2600" width="120" height="60" as="geometry" />
        </mxCell>
        <mxCell id="8WJbZ5vt_U3ghZ7-BwTl-98" value="Router" style="rounded=1;whiteSpace=wrap;html=1;fillColor=#f0a30a;fontColor=#000000;strokeColor=#BD7000;" vertex="1" parent="1">
          <mxGeometry x="627" y="2600" width="120" height="60" as="geometry" />
        </mxCell>
        <mxCell id="8WJbZ5vt_U3ghZ7-BwTl-101" value="" style="shape=doubleArrow;direction=south;whiteSpace=wrap;html=1;fillColor=#e51400;fontColor=#ffffff;strokeColor=#B20000;" vertex="1" parent="1">
          <mxGeometry x="254.99" y="2460" width="60" height="50" as="geometry" />
        </mxCell>
        <mxCell id="8WJbZ5vt_U3ghZ7-BwTl-102" value="" style="shape=doubleArrow;direction=south;whiteSpace=wrap;html=1;fillColor=#e51400;fontColor=#ffffff;strokeColor=#B20000;" vertex="1" parent="1">
          <mxGeometry x="803.99" y="2460" width="60" height="50" as="geometry" />
        </mxCell>
        <mxCell id="8WJbZ5vt_U3ghZ7-BwTl-103" value="defendar&lt;br&gt;防火墙" style="rounded=1;whiteSpace=wrap;html=1;fillColor=#f0a30a;fontColor=#000000;strokeColor=#BD7000;" vertex="1" parent="1">
          <mxGeometry x="844" y="2520" width="120" height="60" as="geometry" />
        </mxCell>
        <mxCell id="8WJbZ5vt_U3ghZ7-BwTl-104" value="认证授权" style="rounded=1;whiteSpace=wrap;html=1;fillColor=#60a917;fontColor=#ffffff;strokeColor=#2D7600;" vertex="1" parent="1">
          <mxGeometry x="115" y="2810" width="120" height="40" as="geometry" />
        </mxCell>
        <mxCell id="8WJbZ5vt_U3ghZ7-BwTl-105" value="OAuth2" style="rounded=1;whiteSpace=wrap;html=1;fillColor=#60a917;fontColor=#ffffff;strokeColor=#2D7600;" vertex="1" parent="1">
          <mxGeometry x="115" y="2990" width="120" height="40" as="geometry" />
        </mxCell>
        <mxCell id="8WJbZ5vt_U3ghZ7-BwTl-106" value="账号安全" style="rounded=1;whiteSpace=wrap;html=1;fillColor=#60a917;fontColor=#ffffff;strokeColor=#2D7600;" vertex="1" parent="1">
          <mxGeometry x="115" y="2930" width="120" height="40" as="geometry" />
        </mxCell>
        <mxCell id="8WJbZ5vt_U3ghZ7-BwTl-107" value="用户信心" style="rounded=1;whiteSpace=wrap;html=1;fillColor=#60a917;fontColor=#ffffff;strokeColor=#2D7600;" vertex="1" parent="1">
          <mxGeometry x="115" y="2870" width="120" height="40" as="geometry" />
        </mxCell>
        <mxCell id="8WJbZ5vt_U3ghZ7-BwTl-110" value="用户" style="text;html=1;strokeColor=none;fillColor=none;align=center;verticalAlign=middle;whiteSpace=wrap;rounded=0;" vertex="1" parent="1">
          <mxGeometry x="144" y="2770" width="60" height="30" as="geometry" />
        </mxCell>
        <mxCell id="8WJbZ5vt_U3ghZ7-BwTl-111" value="" style="rounded=0;whiteSpace=wrap;html=1;fillColor=#f5f5f5;fontColor=#333333;strokeColor=#666666;" vertex="1" parent="1">
          <mxGeometry x="324.5" y="2760" width="160" height="290" as="geometry" />
        </mxCell>
        <mxCell id="8WJbZ5vt_U3ghZ7-BwTl-112" value="支付系统" style="rounded=1;whiteSpace=wrap;html=1;fillColor=#1ba1e2;fontColor=#ffffff;strokeColor=#006EAF;" vertex="1" parent="1">
          <mxGeometry x="344.5" y="2810" width="120" height="40" as="geometry" />
        </mxCell>
        <mxCell id="8WJbZ5vt_U3ghZ7-BwTl-113" value="台账" style="rounded=1;whiteSpace=wrap;html=1;fillColor=#1ba1e2;fontColor=#ffffff;strokeColor=#006EAF;" vertex="1" parent="1">
          <mxGeometry x="344.5" y="2990" width="120" height="40" as="geometry" />
        </mxCell>
        <mxCell id="8WJbZ5vt_U3ghZ7-BwTl-114" value="支付订单" style="rounded=1;whiteSpace=wrap;html=1;fillColor=#1ba1e2;fontColor=#ffffff;strokeColor=#006EAF;" vertex="1" parent="1">
          <mxGeometry x="344.5" y="2930" width="120" height="40" as="geometry" />
        </mxCell>
        <mxCell id="8WJbZ5vt_U3ghZ7-BwTl-115" value="第三方对接" style="rounded=1;whiteSpace=wrap;html=1;fillColor=#1ba1e2;fontColor=#ffffff;strokeColor=#006EAF;" vertex="1" parent="1">
          <mxGeometry x="344.5" y="2870" width="120" height="40" as="geometry" />
        </mxCell>
        <mxCell id="8WJbZ5vt_U3ghZ7-BwTl-116" value="支付" style="text;html=1;strokeColor=none;fillColor=none;align=center;verticalAlign=middle;whiteSpace=wrap;rounded=0;" vertex="1" parent="1">
          <mxGeometry x="373.5" y="2770" width="60" height="30" as="geometry" />
        </mxCell>
        <mxCell id="8WJbZ5vt_U3ghZ7-BwTl-117" value="" style="rounded=0;whiteSpace=wrap;html=1;fillColor=#f5f5f5;fontColor=#333333;strokeColor=#666666;" vertex="1" parent="1">
          <mxGeometry x="541.5" y="2760" width="160" height="290" as="geometry" />
        </mxCell>
        <mxCell id="8WJbZ5vt_U3ghZ7-BwTl-118" value="售前咨询" style="rounded=1;whiteSpace=wrap;html=1;fillColor=#b1ddf0;strokeColor=#10739e;" vertex="1" parent="1">
          <mxGeometry x="561.5" y="2810" width="120" height="40" as="geometry" />
        </mxCell>
        <mxCell id="8WJbZ5vt_U3ghZ7-BwTl-119" value="在线人工" style="rounded=1;whiteSpace=wrap;html=1;fillColor=#b1ddf0;strokeColor=#10739e;" vertex="1" parent="1">
          <mxGeometry x="561.5" y="2990" width="120" height="40" as="geometry" />
        </mxCell>
        <mxCell id="8WJbZ5vt_U3ghZ7-BwTl-120" value="退换货服务" style="rounded=1;whiteSpace=wrap;html=1;fillColor=#b1ddf0;strokeColor=#10739e;" vertex="1" parent="1">
          <mxGeometry x="561.5" y="2930" width="120" height="40" as="geometry" />
        </mxCell>
        <mxCell id="8WJbZ5vt_U3ghZ7-BwTl-121" value="售后系统" style="rounded=1;whiteSpace=wrap;html=1;fillColor=#b1ddf0;strokeColor=#10739e;" vertex="1" parent="1">
          <mxGeometry x="561.5" y="2870" width="120" height="40" as="geometry" />
        </mxCell>
        <mxCell id="8WJbZ5vt_U3ghZ7-BwTl-122" value="客服" style="text;html=1;strokeColor=none;fillColor=none;align=center;verticalAlign=middle;whiteSpace=wrap;rounded=0;" vertex="1" parent="1">
          <mxGeometry x="590.5" y="2770" width="60" height="30" as="geometry" />
        </mxCell>
        <mxCell id="8WJbZ5vt_U3ghZ7-BwTl-123" value="" style="rounded=0;whiteSpace=wrap;html=1;fillColor=#f5f5f5;fontColor=#333333;strokeColor=#666666;" vertex="1" parent="1">
          <mxGeometry x="771" y="2760" width="160" height="290" as="geometry" />
        </mxCell>
        <mxCell id="8WJbZ5vt_U3ghZ7-BwTl-124" value="星级" style="rounded=1;whiteSpace=wrap;html=1;fillColor=#bac8d3;strokeColor=#23445d;" vertex="1" parent="1">
          <mxGeometry x="791" y="2810" width="120" height="40" as="geometry" />
        </mxCell>
        <mxCell id="8WJbZ5vt_U3ghZ7-BwTl-125" value="审核举报" style="rounded=1;whiteSpace=wrap;html=1;fillColor=#bac8d3;strokeColor=#23445d;" vertex="1" parent="1">
          <mxGeometry x="791" y="2990" width="120" height="40" as="geometry" />
        </mxCell>
        <mxCell id="8WJbZ5vt_U3ghZ7-BwTl-126" value="晒图" style="rounded=1;whiteSpace=wrap;html=1;fillColor=#bac8d3;strokeColor=#23445d;" vertex="1" parent="1">
          <mxGeometry x="791" y="2930" width="120" height="40" as="geometry" />
        </mxCell>
        <mxCell id="8WJbZ5vt_U3ghZ7-BwTl-127" value="标签" style="rounded=1;whiteSpace=wrap;html=1;fillColor=#bac8d3;strokeColor=#23445d;" vertex="1" parent="1">
          <mxGeometry x="791" y="2870" width="120" height="40" as="geometry" />
        </mxCell>
        <mxCell id="8WJbZ5vt_U3ghZ7-BwTl-128" value="评价" style="text;html=1;strokeColor=none;fillColor=none;align=center;verticalAlign=middle;whiteSpace=wrap;rounded=0;" vertex="1" parent="1">
          <mxGeometry x="820" y="2770" width="60" height="30" as="geometry" />
        </mxCell>
        <mxCell id="8WJbZ5vt_U3ghZ7-BwTl-129" value="" style="rounded=0;whiteSpace=wrap;html=1;fillColor=#dae8fc;strokeColor=#6c8ebf;gradientColor=#7ea6e0;" vertex="1" parent="1">
          <mxGeometry x="95" y="3133" width="160" height="290" as="geometry" />
        </mxCell>
        <mxCell id="8WJbZ5vt_U3ghZ7-BwTl-130" value="首页" style="rounded=1;whiteSpace=wrap;html=1;fillColor=#d0cee2;strokeColor=#56517e;" vertex="1" parent="1">
          <mxGeometry x="115" y="3183" width="120" height="40" as="geometry" />
        </mxCell>
        <mxCell id="8WJbZ5vt_U3ghZ7-BwTl-131" value="..." style="rounded=1;whiteSpace=wrap;html=1;fillColor=#d0cee2;strokeColor=#56517e;" vertex="1" parent="1">
          <mxGeometry x="115" y="3363" width="120" height="40" as="geometry" />
        </mxCell>
        <mxCell id="8WJbZ5vt_U3ghZ7-BwTl-132" value="详情页" style="rounded=1;whiteSpace=wrap;html=1;fillColor=#d0cee2;strokeColor=#56517e;" vertex="1" parent="1">
          <mxGeometry x="115" y="3303" width="120" height="40" as="geometry" />
        </mxCell>
        <mxCell id="8WJbZ5vt_U3ghZ7-BwTl-133" value="列表页" style="rounded=1;whiteSpace=wrap;html=1;fillColor=#d0cee2;strokeColor=#56517e;" vertex="1" parent="1">
          <mxGeometry x="115" y="3243" width="120" height="40" as="geometry" />
        </mxCell>
        <mxCell id="8WJbZ5vt_U3ghZ7-BwTl-134" value="网站" style="text;html=1;strokeColor=none;fillColor=none;align=center;verticalAlign=middle;whiteSpace=wrap;rounded=0;" vertex="1" parent="1">
          <mxGeometry x="144" y="3143" width="60" height="30" as="geometry" />
        </mxCell>
        <mxCell id="8WJbZ5vt_U3ghZ7-BwTl-135" value="" style="rounded=0;whiteSpace=wrap;html=1;fillColor=#dae8fc;strokeColor=#6c8ebf;gradientColor=#7ea6e0;" vertex="1" parent="1">
          <mxGeometry x="324.5" y="3133" width="160" height="290" as="geometry" />
        </mxCell>
        <mxCell id="8WJbZ5vt_U3ghZ7-BwTl-136" value="购物车" style="rounded=1;whiteSpace=wrap;html=1;fillColor=#f0a30a;fontColor=#000000;strokeColor=#BD7000;" vertex="1" parent="1">
          <mxGeometry x="344.5" y="3183" width="120" height="40" as="geometry" />
        </mxCell>
        <mxCell id="8WJbZ5vt_U3ghZ7-BwTl-137" value="..." style="rounded=1;whiteSpace=wrap;html=1;fillColor=#f0a30a;fontColor=#000000;strokeColor=#BD7000;" vertex="1" parent="1">
          <mxGeometry x="344.5" y="3363" width="120" height="40" as="geometry" />
        </mxCell>
        <mxCell id="8WJbZ5vt_U3ghZ7-BwTl-138" value="支付" style="rounded=1;whiteSpace=wrap;html=1;fillColor=#f0a30a;fontColor=#000000;strokeColor=#BD7000;" vertex="1" parent="1">
          <mxGeometry x="344.5" y="3303" width="120" height="40" as="geometry" />
        </mxCell>
        <mxCell id="8WJbZ5vt_U3ghZ7-BwTl-139" value="下单" style="rounded=1;whiteSpace=wrap;html=1;fillColor=#f0a30a;fontColor=#000000;strokeColor=#BD7000;" vertex="1" parent="1">
          <mxGeometry x="344.5" y="3243" width="120" height="40" as="geometry" />
        </mxCell>
        <mxCell id="8WJbZ5vt_U3ghZ7-BwTl-140" value="交易" style="text;html=1;strokeColor=none;fillColor=none;align=center;verticalAlign=middle;whiteSpace=wrap;rounded=0;" vertex="1" parent="1">
          <mxGeometry x="373.5" y="3143" width="60" height="30" as="geometry" />
        </mxCell>
        <mxCell id="8WJbZ5vt_U3ghZ7-BwTl-141" value="" style="rounded=0;whiteSpace=wrap;html=1;fillColor=#dae8fc;strokeColor=#6c8ebf;gradientColor=#7ea6e0;" vertex="1" parent="1">
          <mxGeometry x="541.5" y="3133" width="160" height="290" as="geometry" />
        </mxCell>
        <mxCell id="8WJbZ5vt_U3ghZ7-BwTl-142" value="订单中心" style="rounded=1;whiteSpace=wrap;html=1;fillColor=#b1ddf0;strokeColor=#10739e;" vertex="1" parent="1">
          <mxGeometry x="561.5" y="3183" width="120" height="40" as="geometry" />
        </mxCell>
        <mxCell id="8WJbZ5vt_U3ghZ7-BwTl-143" value="..." style="rounded=1;whiteSpace=wrap;html=1;fillColor=#b1ddf0;strokeColor=#10739e;" vertex="1" parent="1">
          <mxGeometry x="561.5" y="3363" width="120" height="40" as="geometry" />
        </mxCell>
        <mxCell id="8WJbZ5vt_U3ghZ7-BwTl-144" value="订单转移" style="rounded=1;whiteSpace=wrap;html=1;fillColor=#b1ddf0;strokeColor=#10739e;" vertex="1" parent="1">
          <mxGeometry x="561.5" y="3303" width="120" height="40" as="geometry" />
        </mxCell>
        <mxCell id="8WJbZ5vt_U3ghZ7-BwTl-145" value="订单拆分" style="rounded=1;whiteSpace=wrap;html=1;fillColor=#b1ddf0;strokeColor=#10739e;" vertex="1" parent="1">
          <mxGeometry x="561.5" y="3243" width="120" height="40" as="geometry" />
        </mxCell>
        <mxCell id="8WJbZ5vt_U3ghZ7-BwTl-146" value="订单" style="text;html=1;strokeColor=none;fillColor=none;align=center;verticalAlign=middle;whiteSpace=wrap;rounded=0;" vertex="1" parent="1">
          <mxGeometry x="590.5" y="3143" width="60" height="30" as="geometry" />
        </mxCell>
        <mxCell id="8WJbZ5vt_U3ghZ7-BwTl-147" value="" style="rounded=0;whiteSpace=wrap;html=1;fillColor=#dae8fc;strokeColor=#6c8ebf;gradientColor=#7ea6e0;" vertex="1" parent="1">
          <mxGeometry x="774" y="3149.5" width="280" height="257" as="geometry" />
        </mxCell>
        <mxCell id="8WJbZ5vt_U3ghZ7-BwTl-149" value="第三方系统对接" style="rounded=1;whiteSpace=wrap;html=1;fillColor=#bac8d3;strokeColor=#23445d;" vertex="1" parent="1">
          <mxGeometry x="801" y="3258" width="230" height="40" as="geometry" />
        </mxCell>
        <mxCell id="8WJbZ5vt_U3ghZ7-BwTl-152" value="物流系统" style="text;html=1;strokeColor=none;fillColor=none;align=center;verticalAlign=middle;whiteSpace=wrap;rounded=0;" vertex="1" parent="1">
          <mxGeometry x="881" y="3170" width="60" height="30" as="geometry" />
        </mxCell>
        <mxCell id="8WJbZ5vt_U3ghZ7-BwTl-156" value="" style="shape=singleArrow;direction=north;whiteSpace=wrap;html=1;" vertex="1" parent="1">
          <mxGeometry x="144" y="3050" width="60" height="60" as="geometry" />
        </mxCell>
        <mxCell id="8WJbZ5vt_U3ghZ7-BwTl-158" value="" style="shape=singleArrow;direction=north;whiteSpace=wrap;html=1;" vertex="1" parent="1">
          <mxGeometry x="595" y="3050" width="60" height="60" as="geometry" />
        </mxCell>
        <mxCell id="8WJbZ5vt_U3ghZ7-BwTl-159" value="" style="shape=singleArrow;direction=north;whiteSpace=wrap;html=1;" vertex="1" parent="1">
          <mxGeometry x="374.5" y="3050" width="60" height="60" as="geometry" />
        </mxCell>
        <mxCell id="8WJbZ5vt_U3ghZ7-BwTl-160" value="" style="shape=flexArrow;endArrow=classic;html=1;rounded=0;curved=1;entryX=0.25;entryY=1;entryDx=0;entryDy=0;" edge="1" parent="1" target="8WJbZ5vt_U3ghZ7-BwTl-123">
          <mxGeometry width="50" height="50" relative="1" as="geometry">
            <mxPoint x="734" y="3110" as="sourcePoint" />
            <mxPoint x="774" y="3070" as="targetPoint" />
          </mxGeometry>
        </mxCell>
        <mxCell id="8WJbZ5vt_U3ghZ7-BwTl-161" value="" style="shape=singleArrow;whiteSpace=wrap;html=1;" vertex="1" parent="1">
          <mxGeometry x="254" y="3210" width="70" height="60" as="geometry" />
        </mxCell>
        <mxCell id="8WJbZ5vt_U3ghZ7-BwTl-162" value="" style="shape=singleArrow;whiteSpace=wrap;html=1;" vertex="1" parent="1">
          <mxGeometry x="484" y="3220" width="60" height="60" as="geometry" />
        </mxCell>
        <mxCell id="8WJbZ5vt_U3ghZ7-BwTl-163" value="" style="shape=singleArrow;whiteSpace=wrap;html=1;" vertex="1" parent="1">
          <mxGeometry x="724" y="3220" width="50" height="60" as="geometry" />
        </mxCell>
        <mxCell id="8WJbZ5vt_U3ghZ7-BwTl-164" value="" style="rounded=0;whiteSpace=wrap;html=1;fillColor=#d5e8d4;strokeColor=#82b366;" vertex="1" parent="1">
          <mxGeometry x="87.5" y="3510" width="160" height="290" as="geometry" />
        </mxCell>
        <mxCell id="8WJbZ5vt_U3ghZ7-BwTl-165" value="商品数据" style="rounded=1;whiteSpace=wrap;html=1;fillColor=#ffe6cc;strokeColor=#d79b00;" vertex="1" parent="1">
          <mxGeometry x="107.5" y="3560" width="120" height="40" as="geometry" />
        </mxCell>
        <mxCell id="8WJbZ5vt_U3ghZ7-BwTl-166" value="..." style="rounded=1;whiteSpace=wrap;html=1;fillColor=#ffe6cc;strokeColor=#d79b00;" vertex="1" parent="1">
          <mxGeometry x="107.5" y="3740" width="120" height="40" as="geometry" />
        </mxCell>
        <mxCell id="8WJbZ5vt_U3ghZ7-BwTl-167" value="商品属性" style="rounded=1;whiteSpace=wrap;html=1;fillColor=#ffe6cc;strokeColor=#d79b00;" vertex="1" parent="1">
          <mxGeometry x="107.5" y="3680" width="120" height="40" as="geometry" />
        </mxCell>
        <mxCell id="8WJbZ5vt_U3ghZ7-BwTl-168" value="商品类目" style="rounded=1;whiteSpace=wrap;html=1;fillColor=#ffe6cc;strokeColor=#d79b00;" vertex="1" parent="1">
          <mxGeometry x="107.5" y="3620" width="120" height="40" as="geometry" />
        </mxCell>
        <mxCell id="8WJbZ5vt_U3ghZ7-BwTl-169" value="商品" style="text;html=1;strokeColor=none;fillColor=none;align=center;verticalAlign=middle;whiteSpace=wrap;rounded=0;" vertex="1" parent="1">
          <mxGeometry x="136.5" y="3520" width="60" height="30" as="geometry" />
        </mxCell>
        <mxCell id="8WJbZ5vt_U3ghZ7-BwTl-170" value="" style="rounded=0;whiteSpace=wrap;html=1;fillColor=#d5e8d4;strokeColor=#82b366;" vertex="1" parent="1">
          <mxGeometry x="317" y="3510" width="160" height="290" as="geometry" />
        </mxCell>
        <mxCell id="8WJbZ5vt_U3ghZ7-BwTl-171" value="库存扣减" style="rounded=1;whiteSpace=wrap;html=1;fillColor=#d80073;strokeColor=#A50040;fontColor=#ffffff;" vertex="1" parent="1">
          <mxGeometry x="337" y="3560" width="120" height="40" as="geometry" />
        </mxCell>
        <mxCell id="8WJbZ5vt_U3ghZ7-BwTl-172" value="..." style="rounded=1;whiteSpace=wrap;html=1;fillColor=#d80073;strokeColor=#A50040;fontColor=#ffffff;" vertex="1" parent="1">
          <mxGeometry x="337" y="3740" width="120" height="40" as="geometry" />
        </mxCell>
        <mxCell id="8WJbZ5vt_U3ghZ7-BwTl-173" value="库存状态" style="rounded=1;whiteSpace=wrap;html=1;fillColor=#d80073;strokeColor=#A50040;fontColor=#ffffff;" vertex="1" parent="1">
          <mxGeometry x="337" y="3680" width="120" height="40" as="geometry" />
        </mxCell>
        <mxCell id="8WJbZ5vt_U3ghZ7-BwTl-174" value="库存下单" style="rounded=1;whiteSpace=wrap;html=1;fillColor=#d80073;strokeColor=#A50040;fontColor=#ffffff;" vertex="1" parent="1">
          <mxGeometry x="337" y="3620" width="120" height="40" as="geometry" />
        </mxCell>
        <mxCell id="8WJbZ5vt_U3ghZ7-BwTl-175" value="交易" style="text;html=1;strokeColor=none;fillColor=none;align=center;verticalAlign=middle;whiteSpace=wrap;rounded=0;" vertex="1" parent="1">
          <mxGeometry x="366" y="3520" width="60" height="30" as="geometry" />
        </mxCell>
        <mxCell id="8WJbZ5vt_U3ghZ7-BwTl-176" value="" style="rounded=0;whiteSpace=wrap;html=1;fillColor=#d5e8d4;strokeColor=#82b366;" vertex="1" parent="1">
          <mxGeometry x="534" y="3510" width="160" height="290" as="geometry" />
        </mxCell>
        <mxCell id="8WJbZ5vt_U3ghZ7-BwTl-177" value="活动中心" style="rounded=1;whiteSpace=wrap;html=1;fillColor=#e1d5e7;strokeColor=#9673a6;" vertex="1" parent="1">
          <mxGeometry x="554" y="3560" width="120" height="40" as="geometry" />
        </mxCell>
        <mxCell id="8WJbZ5vt_U3ghZ7-BwTl-178" value="..." style="rounded=1;whiteSpace=wrap;html=1;fillColor=#e1d5e7;strokeColor=#9673a6;" vertex="1" parent="1">
          <mxGeometry x="554" y="3740" width="120" height="40" as="geometry" />
        </mxCell>
        <mxCell id="8WJbZ5vt_U3ghZ7-BwTl-179" value="优惠中心" style="rounded=1;whiteSpace=wrap;html=1;fillColor=#e1d5e7;strokeColor=#9673a6;" vertex="1" parent="1">
          <mxGeometry x="554" y="3680" width="120" height="40" as="geometry" />
        </mxCell>
        <mxCell id="8WJbZ5vt_U3ghZ7-BwTl-180" value="秒杀中心" style="rounded=1;whiteSpace=wrap;html=1;fillColor=#e1d5e7;strokeColor=#9673a6;" vertex="1" parent="1">
          <mxGeometry x="554" y="3620" width="120" height="40" as="geometry" />
        </mxCell>
        <mxCell id="8WJbZ5vt_U3ghZ7-BwTl-181" value="营销" style="text;html=1;strokeColor=none;fillColor=none;align=center;verticalAlign=middle;whiteSpace=wrap;rounded=0;" vertex="1" parent="1">
          <mxGeometry x="583" y="3520" width="60" height="30" as="geometry" />
        </mxCell>
        <mxCell id="8WJbZ5vt_U3ghZ7-BwTl-182" value="" style="shape=singleArrow;whiteSpace=wrap;html=1;" vertex="1" parent="1">
          <mxGeometry x="246.5" y="3587" width="70" height="60" as="geometry" />
        </mxCell>
        <mxCell id="8WJbZ5vt_U3ghZ7-BwTl-183" value="" style="shape=singleArrow;whiteSpace=wrap;html=1;" vertex="1" parent="1">
          <mxGeometry x="476.5" y="3597" width="60" height="60" as="geometry" />
        </mxCell>
        <mxCell id="8WJbZ5vt_U3ghZ7-BwTl-186" value="文件系统" style="rounded=1;whiteSpace=wrap;html=1;fillColor=#d80073;strokeColor=#A50040;fontColor=#ffffff;" vertex="1" parent="1">
          <mxGeometry x="741.25" y="3550" width="120" height="40" as="geometry" />
        </mxCell>
        <mxCell id="8WJbZ5vt_U3ghZ7-BwTl-187" value="注册系统" style="rounded=1;whiteSpace=wrap;html=1;fillColor=#d80073;strokeColor=#A50040;fontColor=#ffffff;" vertex="1" parent="1">
          <mxGeometry x="741.25" y="3730" width="120" height="40" as="geometry" />
        </mxCell>
        <mxCell id="8WJbZ5vt_U3ghZ7-BwTl-188" value="监控系统" style="rounded=1;whiteSpace=wrap;html=1;fillColor=#d80073;strokeColor=#A50040;fontColor=#ffffff;" vertex="1" parent="1">
          <mxGeometry x="741.25" y="3670" width="120" height="40" as="geometry" />
        </mxCell>
        <mxCell id="8WJbZ5vt_U3ghZ7-BwTl-189" value="日志系统" style="rounded=1;whiteSpace=wrap;html=1;fillColor=#d80073;strokeColor=#A50040;fontColor=#ffffff;" vertex="1" parent="1">
          <mxGeometry x="741.25" y="3610" width="120" height="40" as="geometry" />
        </mxCell>
        <mxCell id="8WJbZ5vt_U3ghZ7-BwTl-190" value="检索中心" style="rounded=1;whiteSpace=wrap;html=1;fillColor=#e1d5e7;strokeColor=#9673a6;" vertex="1" parent="1">
          <mxGeometry x="891.25" y="3550" width="120" height="40" as="geometry" />
        </mxCell>
        <mxCell id="8WJbZ5vt_U3ghZ7-BwTl-191" value="内容管理" style="rounded=1;whiteSpace=wrap;html=1;fillColor=#e1d5e7;strokeColor=#9673a6;" vertex="1" parent="1">
          <mxGeometry x="891.25" y="3730" width="120" height="40" as="geometry" />
        </mxCell>
        <mxCell id="8WJbZ5vt_U3ghZ7-BwTl-192" value="网关系统" style="rounded=1;whiteSpace=wrap;html=1;fillColor=#e1d5e7;strokeColor=#9673a6;" vertex="1" parent="1">
          <mxGeometry x="891.25" y="3670" width="120" height="40" as="geometry" />
        </mxCell>
        <mxCell id="8WJbZ5vt_U3ghZ7-BwTl-193" value="通讯系统" style="rounded=1;whiteSpace=wrap;html=1;fillColor=#e1d5e7;strokeColor=#9673a6;" vertex="1" parent="1">
          <mxGeometry x="891.25" y="3610" width="120" height="40" as="geometry" />
        </mxCell>
        <mxCell id="8WJbZ5vt_U3ghZ7-BwTl-199" value="基础平台" style="text;html=1;strokeColor=none;fillColor=none;align=center;verticalAlign=middle;whiteSpace=wrap;rounded=0;" vertex="1" parent="1">
          <mxGeometry x="841.25" y="3517" width="70" height="30" as="geometry" />
        </mxCell>
        <mxCell id="8WJbZ5vt_U3ghZ7-BwTl-200" value="" style="shape=singleArrow;whiteSpace=wrap;html=1;rotation=60;" vertex="1" parent="1">
          <mxGeometry x="699.63" y="3446.65" width="71.5" height="60" as="geometry" />
        </mxCell>
        <mxCell id="8WJbZ5vt_U3ghZ7-BwTl-202" value="" style="shape=singleArrow;direction=south;whiteSpace=wrap;html=1;" vertex="1" parent="1">
          <mxGeometry x="596.75" y="3450" width="60" height="50" as="geometry" />
        </mxCell>
        <mxCell id="8WJbZ5vt_U3ghZ7-BwTl-203" value="" style="shape=singleArrow;direction=south;whiteSpace=wrap;html=1;" vertex="1" parent="1">
          <mxGeometry x="150.25" y="3450" width="60" height="50" as="geometry" />
        </mxCell>
        <mxCell id="8WJbZ5vt_U3ghZ7-BwTl-204" value="" style="shape=singleArrow;direction=south;whiteSpace=wrap;html=1;" vertex="1" parent="1">
          <mxGeometry x="378.75" y="3450" width="60" height="50" as="geometry" />
        </mxCell>
        <mxCell id="8WJbZ5vt_U3ghZ7-BwTl-206" value="业务&lt;br&gt;架构图" style="text;html=1;strokeColor=none;fillColor=none;align=center;verticalAlign=middle;whiteSpace=wrap;rounded=0;" vertex="1" parent="1">
          <mxGeometry x="1002" y="2744" width="60" height="70" as="geometry" />
        </mxCell>
        <mxCell id="8WJbZ5vt_U3ghZ7-BwTl-208" value="服务&lt;br&gt;架构图" style="text;html=1;strokeColor=none;fillColor=none;align=center;verticalAlign=middle;whiteSpace=wrap;rounded=0;" vertex="1" parent="1">
          <mxGeometry x="1014" y="2067" width="60" height="70" as="geometry" />
        </mxCell>
        <mxCell id="8WJbZ5vt_U3ghZ7-BwTl-209" value="" style="shape=singleArrow;whiteSpace=wrap;html=1;" vertex="1" parent="1">
          <mxGeometry x="770" y="1285" width="100" height="60" as="geometry" />
        </mxCell>
        <mxCell id="8WJbZ5vt_U3ghZ7-BwTl-210" value="&lt;h1&gt;如何实现服务通信&lt;/h1&gt;&lt;p&gt;1、服务发现&lt;/p&gt;&lt;p&gt;注册中心&lt;/p&gt;&lt;p&gt;2、服务调用&lt;/p&gt;&lt;p&gt;RPC&lt;/p&gt;&lt;p&gt;3、负载均衡和高可用&lt;/p&gt;&lt;p&gt;服务均衡算法和服务集群&lt;/p&gt;" style="text;html=1;strokeColor=none;fillColor=none;spacing=5;spacingTop=-20;whiteSpace=wrap;overflow=hidden;rounded=0;" vertex="1" parent="1">
          <mxGeometry x="870" y="1240" width="204" height="210" as="geometry" />
        </mxCell>
        <mxCell id="8WJbZ5vt_U3ghZ7-BwTl-234" style="edgeStyle=orthogonalEdgeStyle;rounded=0;orthogonalLoop=1;jettySize=auto;html=1;entryX=0.5;entryY=1;entryDx=0;entryDy=0;" edge="1" parent="1" source="8WJbZ5vt_U3ghZ7-BwTl-212" target="8WJbZ5vt_U3ghZ7-BwTl-222">
          <mxGeometry relative="1" as="geometry" />
        </mxCell>
        <mxCell id="8WJbZ5vt_U3ghZ7-BwTl-212" value="微服务3" style="rounded=1;whiteSpace=wrap;html=1;fillColor=#fad9d5;strokeColor=#ae4132;" vertex="1" parent="1">
          <mxGeometry x="1181" y="1450" width="85" height="60" as="geometry" />
        </mxCell>
        <mxCell id="8WJbZ5vt_U3ghZ7-BwTl-233" style="edgeStyle=orthogonalEdgeStyle;rounded=0;orthogonalLoop=1;jettySize=auto;html=1;entryX=0.5;entryY=1;entryDx=0;entryDy=0;" edge="1" parent="1" source="8WJbZ5vt_U3ghZ7-BwTl-213" target="8WJbZ5vt_U3ghZ7-BwTl-222">
          <mxGeometry relative="1" as="geometry" />
        </mxCell>
        <mxCell id="8WJbZ5vt_U3ghZ7-BwTl-213" value="微服务2" style="rounded=1;whiteSpace=wrap;html=1;fillColor=#fad9d5;strokeColor=#ae4132;" vertex="1" parent="1">
          <mxGeometry x="1181" y="1365" width="86" height="60" as="geometry" />
        </mxCell>
        <mxCell id="8WJbZ5vt_U3ghZ7-BwTl-225" style="edgeStyle=orthogonalEdgeStyle;rounded=0;orthogonalLoop=1;jettySize=auto;html=1;entryX=0.5;entryY=1;entryDx=0;entryDy=0;" edge="1" parent="1" source="8WJbZ5vt_U3ghZ7-BwTl-214" target="8WJbZ5vt_U3ghZ7-BwTl-222">
          <mxGeometry relative="1" as="geometry" />
        </mxCell>
        <mxCell id="8WJbZ5vt_U3ghZ7-BwTl-214" value="微服务1" style="rounded=1;whiteSpace=wrap;html=1;fillColor=#fad9d5;strokeColor=#ae4132;" vertex="1" parent="1">
          <mxGeometry x="1181" y="1280" width="86" height="60" as="geometry" />
        </mxCell>
        <mxCell id="8WJbZ5vt_U3ghZ7-BwTl-216" value="微服务集群1" style="text;html=1;strokeColor=none;fillColor=none;align=center;verticalAlign=middle;whiteSpace=wrap;rounded=0;" vertex="1" parent="1">
          <mxGeometry x="1180" y="1240" width="80" height="30" as="geometry" />
        </mxCell>
        <mxCell id="8WJbZ5vt_U3ghZ7-BwTl-241" style="edgeStyle=orthogonalEdgeStyle;rounded=0;orthogonalLoop=1;jettySize=auto;html=1;entryX=0;entryY=0.5;entryDx=0;entryDy=0;fontColor=#000000;exitX=0.421;exitY=0.975;exitDx=0;exitDy=0;exitPerimeter=0;" edge="1" parent="1" source="8WJbZ5vt_U3ghZ7-BwTl-221" target="8WJbZ5vt_U3ghZ7-BwTl-239">
          <mxGeometry relative="1" as="geometry" />
        </mxCell>
        <mxCell id="8WJbZ5vt_U3ghZ7-BwTl-217" value="" style="rounded=0;whiteSpace=wrap;html=1;fillColor=#b1ddf0;strokeColor=#10739e;" vertex="1" parent="1">
          <mxGeometry x="1430" y="1220" width="140" height="300" as="geometry" />
        </mxCell>
        <mxCell id="8WJbZ5vt_U3ghZ7-BwTl-232" style="edgeStyle=orthogonalEdgeStyle;rounded=0;orthogonalLoop=1;jettySize=auto;html=1;entryX=0.5;entryY=1;entryDx=0;entryDy=0;" edge="1" parent="1" source="8WJbZ5vt_U3ghZ7-BwTl-218" target="8WJbZ5vt_U3ghZ7-BwTl-222">
          <mxGeometry relative="1" as="geometry" />
        </mxCell>
        <mxCell id="8WJbZ5vt_U3ghZ7-BwTl-218" value="微服务3" style="rounded=1;whiteSpace=wrap;html=1;fillColor=#d0cee2;strokeColor=#56517e;" vertex="1" parent="1">
          <mxGeometry x="1461" y="1405" width="85" height="60" as="geometry" />
        </mxCell>
        <mxCell id="8WJbZ5vt_U3ghZ7-BwTl-231" style="edgeStyle=orthogonalEdgeStyle;rounded=0;orthogonalLoop=1;jettySize=auto;html=1;" edge="1" parent="1" source="8WJbZ5vt_U3ghZ7-BwTl-219" target="8WJbZ5vt_U3ghZ7-BwTl-222">
          <mxGeometry relative="1" as="geometry" />
        </mxCell>
        <mxCell id="8WJbZ5vt_U3ghZ7-BwTl-219" value="微服务2" style="rounded=1;whiteSpace=wrap;html=1;fillColor=#d0cee2;strokeColor=#56517e;" vertex="1" parent="1">
          <mxGeometry x="1461" y="1320" width="86" height="60" as="geometry" />
        </mxCell>
        <mxCell id="8WJbZ5vt_U3ghZ7-BwTl-228" style="edgeStyle=orthogonalEdgeStyle;rounded=0;orthogonalLoop=1;jettySize=auto;html=1;entryX=0.5;entryY=1;entryDx=0;entryDy=0;" edge="1" parent="1" source="8WJbZ5vt_U3ghZ7-BwTl-220" target="8WJbZ5vt_U3ghZ7-BwTl-222">
          <mxGeometry relative="1" as="geometry" />
        </mxCell>
        <mxCell id="8WJbZ5vt_U3ghZ7-BwTl-220" value="微服务1" style="rounded=1;whiteSpace=wrap;html=1;fillColor=#d0cee2;strokeColor=#56517e;" vertex="1" parent="1">
          <mxGeometry x="1461" y="1235" width="86" height="60" as="geometry" />
        </mxCell>
        <mxCell id="8WJbZ5vt_U3ghZ7-BwTl-221" value="微服务集群2" style="text;html=1;strokeColor=none;fillColor=none;align=center;verticalAlign=middle;whiteSpace=wrap;rounded=0;" vertex="1" parent="1">
          <mxGeometry x="1461" y="1490" width="80" height="30" as="geometry" />
        </mxCell>
        <mxCell id="8WJbZ5vt_U3ghZ7-BwTl-222" value="注册中心" style="rounded=1;whiteSpace=wrap;html=1;fillColor=#a20025;strokeColor=#6F0000;fontColor=#ffffff;" vertex="1" parent="1">
          <mxGeometry x="1296" y="1120" width="144" height="60" as="geometry" />
        </mxCell>
        <mxCell id="8WJbZ5vt_U3ghZ7-BwTl-235" value="&lt;h1&gt;&lt;font style=&quot;font-weight: normal;&quot;&gt;服务调用过程&lt;/font&gt;&lt;/h1&gt;&lt;p&gt;1、微服务1想要调用微服务2&lt;/p&gt;&lt;p&gt;2、微服务1通过&lt;b&gt;&lt;font color=&quot;#ff0000&quot;&gt;注册中心&lt;/font&gt;&lt;/b&gt;接口获取微服务2的接口列表&lt;/p&gt;&lt;p&gt;3、通过&lt;b&gt;&lt;font color=&quot;#ff0000&quot;&gt;负载均衡算法&lt;/font&gt;&lt;/b&gt;选一个微服务2接口&lt;/p&gt;&lt;p&gt;4、通过指定的&lt;b&gt;&lt;font color=&quot;#ff0000&quot;&gt;RPC协议&lt;/font&gt;&lt;/b&gt;来调用选取的微服务2接口&lt;/p&gt;" style="text;html=1;strokeColor=none;fillColor=none;spacing=5;spacingTop=-20;whiteSpace=wrap;overflow=hidden;rounded=0;" vertex="1" parent="1">
          <mxGeometry x="1150" y="1544" width="204" height="210" as="geometry" />
        </mxCell>
        <mxCell id="8WJbZ5vt_U3ghZ7-BwTl-236" value="&lt;h1&gt;&lt;font color=&quot;#ffb366&quot;&gt;面试题&lt;/font&gt;&lt;/h1&gt;&lt;p&gt;&lt;font color=&quot;#ffb366&quot;&gt;如何实现一个RPC框架？&lt;/font&gt;&lt;/p&gt;&lt;p&gt;&lt;font color=&quot;#ffb366&quot;&gt;1、设计一个产品首先要考虑出现了问题怎么解决&lt;/font&gt;&lt;/p&gt;&lt;p&gt;&lt;font color=&quot;#ffb366&quot;&gt;2、服务注册问题&lt;/font&gt;&lt;/p&gt;&lt;p&gt;&lt;font color=&quot;#ffb366&quot;&gt;3、负载均衡算法怎么选&lt;/font&gt;&lt;/p&gt;&lt;p&gt;&lt;font color=&quot;#ffb366&quot;&gt;4、RPC协议&lt;/font&gt;&lt;/p&gt;&lt;p&gt;&lt;font color=&quot;#ffb366&quot;&gt;5、如果注册服务中心不能访问了，怎么办？&lt;/font&gt;&lt;/p&gt;&lt;p&gt;&lt;font color=&quot;#ffb366&quot;&gt;可以本地缓存服务列表&lt;/font&gt;&lt;/p&gt;&lt;p&gt;&lt;font color=&quot;#ffb366&quot;&gt;6、如何实现高可用，高性能？&lt;/font&gt;&lt;/p&gt;&lt;p&gt;&lt;font color=&quot;#ffb366&quot;&gt;服务列表异步更新；&lt;/font&gt;&lt;/p&gt;&lt;p&gt;&lt;font color=&quot;#ffb366&quot;&gt;服务在上传心跳的时候，将自己的负载情况一并上传，调用方拿到服务列表可以根据服务的真实负载情况进行负载均衡调用&lt;/font&gt;&lt;/p&gt;&lt;p&gt;&lt;br&gt;&lt;/p&gt;" style="text;html=1;strokeColor=none;fillColor=none;spacing=5;spacingTop=-20;whiteSpace=wrap;overflow=hidden;rounded=0;" vertex="1" parent="1">
          <mxGeometry x="1440" y="1550" width="204" height="390" as="geometry" />
        </mxCell>
        <mxCell id="8WJbZ5vt_U3ghZ7-BwTl-237" value="" style="shape=singleArrow;direction=west;whiteSpace=wrap;html=1;fontColor=#FF0000;" vertex="1" parent="1">
          <mxGeometry x="1370" y="1580" width="50" height="60" as="geometry" />
        </mxCell>
        <mxCell id="8WJbZ5vt_U3ghZ7-BwTl-260" style="edgeStyle=orthogonalEdgeStyle;curved=1;rounded=0;orthogonalLoop=1;jettySize=auto;html=1;entryX=0.75;entryY=1;entryDx=0;entryDy=0;fontColor=#FF0000;" edge="1" parent="1" source="8WJbZ5vt_U3ghZ7-BwTl-238" target="8WJbZ5vt_U3ghZ7-BwTl-239">
          <mxGeometry relative="1" as="geometry" />
        </mxCell>
        <mxCell id="8WJbZ5vt_U3ghZ7-BwTl-238" value="&lt;h1&gt;&lt;font color=&quot;#000000&quot;&gt;A-&amp;gt;B-&amp;gt;C，如果服务调用流程非常慢，需要排查下是哪个服务导致的&lt;/font&gt;&lt;/h1&gt;&lt;p&gt;&lt;font color=&quot;#000000&quot;&gt;链路追踪系统&lt;/font&gt;&lt;/p&gt;" style="text;html=1;strokeColor=none;fillColor=none;spacing=5;spacingTop=-20;whiteSpace=wrap;overflow=hidden;rounded=0;fontColor=#FFB366;" vertex="1" parent="1">
          <mxGeometry x="1730" y="1510" width="150" height="220" as="geometry" />
        </mxCell>
        <mxCell id="8WJbZ5vt_U3ghZ7-BwTl-239" value="链路追踪系统" style="rounded=1;whiteSpace=wrap;html=1;fillColor=#FF3399;strokeColor=#23445d;" vertex="1" parent="1">
          <mxGeometry x="1600" y="1510" width="115" height="60" as="geometry" />
        </mxCell>
        <mxCell id="8WJbZ5vt_U3ghZ7-BwTl-246" style="edgeStyle=orthogonalEdgeStyle;rounded=0;orthogonalLoop=1;jettySize=auto;html=1;entryX=0.5;entryY=0;entryDx=0;entryDy=0;fontColor=#000000;" edge="1" parent="1" source="8WJbZ5vt_U3ghZ7-BwTl-242" target="8WJbZ5vt_U3ghZ7-BwTl-243">
          <mxGeometry relative="1" as="geometry" />
        </mxCell>
        <mxCell id="8WJbZ5vt_U3ghZ7-BwTl-242" value="微服务C" style="rounded=1;whiteSpace=wrap;html=1;fillColor=#d0cee2;strokeColor=#56517e;" vertex="1" parent="1">
          <mxGeometry x="1841" y="1095" width="85" height="60" as="geometry" />
        </mxCell>
        <mxCell id="8WJbZ5vt_U3ghZ7-BwTl-243" value="微服务B" style="rounded=1;whiteSpace=wrap;html=1;fillColor=#FF0000;strokeColor=#56517e;" vertex="1" parent="1">
          <mxGeometry x="1776" y="1195" width="86" height="60" as="geometry" />
        </mxCell>
        <mxCell id="8WJbZ5vt_U3ghZ7-BwTl-245" style="edgeStyle=orthogonalEdgeStyle;rounded=0;orthogonalLoop=1;jettySize=auto;html=1;fontColor=#000000;" edge="1" parent="1" source="8WJbZ5vt_U3ghZ7-BwTl-244" target="8WJbZ5vt_U3ghZ7-BwTl-243">
          <mxGeometry relative="1" as="geometry" />
        </mxCell>
        <mxCell id="8WJbZ5vt_U3ghZ7-BwTl-244" value="微服务A" style="rounded=1;whiteSpace=wrap;html=1;fillColor=#FF0000;strokeColor=#56517e;" vertex="1" parent="1">
          <mxGeometry x="1715" y="1095" width="86" height="60" as="geometry" />
        </mxCell>
        <mxCell id="8WJbZ5vt_U3ghZ7-BwTl-247" value="&lt;h1&gt;&lt;font color=&quot;#000000&quot;&gt;A-&amp;gt;B B-&amp;gt;C B服务超时，导致A服务也超时，B堵塞导致C也无法使用&lt;/font&gt;&lt;/h1&gt;&lt;p&gt;&lt;font color=&quot;#000000&quot;&gt;超时机制&lt;/font&gt;&lt;/p&gt;" style="text;html=1;strokeColor=none;fillColor=none;spacing=5;spacingTop=-20;whiteSpace=wrap;overflow=hidden;rounded=0;fontColor=#FFB366;" vertex="1" parent="1">
          <mxGeometry x="1961" y="1095" width="180" height="200" as="geometry" />
        </mxCell>
        <mxCell id="8WJbZ5vt_U3ghZ7-BwTl-248" value="配置中心" style="rounded=1;whiteSpace=wrap;html=1;fillColor=#CCFF99;strokeColor=#23445d;" vertex="1" parent="1">
          <mxGeometry x="1510" y="1130" width="120" height="60" as="geometry" />
        </mxCell>
        <mxCell id="8WJbZ5vt_U3ghZ7-BwTl-250" style="edgeStyle=orthogonalEdgeStyle;rounded=0;orthogonalLoop=1;jettySize=auto;html=1;entryX=0.5;entryY=0;entryDx=0;entryDy=0;fontColor=#000000;curved=1;" edge="1" parent="1" source="8WJbZ5vt_U3ghZ7-BwTl-249" target="8WJbZ5vt_U3ghZ7-BwTl-222">
          <mxGeometry relative="1" as="geometry" />
        </mxCell>
        <mxCell id="8WJbZ5vt_U3ghZ7-BwTl-249" value="Gateway网关服务" style="rounded=1;whiteSpace=wrap;html=1;fillColor=#3399FF;strokeColor=#23445d;" vertex="1" parent="1">
          <mxGeometry x="1130" y="1020" width="790" height="60" as="geometry" />
        </mxCell>
        <mxCell id="8WJbZ5vt_U3ghZ7-BwTl-252" style="edgeStyle=orthogonalEdgeStyle;curved=1;rounded=0;orthogonalLoop=1;jettySize=auto;html=1;entryX=0.697;entryY=1.032;entryDx=0;entryDy=0;entryPerimeter=0;fontColor=#000000;" edge="1" parent="1" source="8WJbZ5vt_U3ghZ7-BwTl-251" target="8WJbZ5vt_U3ghZ7-BwTl-248">
          <mxGeometry relative="1" as="geometry" />
        </mxCell>
        <mxCell id="8WJbZ5vt_U3ghZ7-BwTl-251" value="所有微服务的应用配置、降级熔断规则、i18n等等配置统一管理" style="text;html=1;strokeColor=none;fillColor=none;align=center;verticalAlign=middle;whiteSpace=wrap;rounded=0;fontColor=#000000;" vertex="1" parent="1">
          <mxGeometry x="1590" y="1229" width="120" height="66" as="geometry" />
        </mxCell>
        <mxCell id="8WJbZ5vt_U3ghZ7-BwTl-254" style="edgeStyle=orthogonalEdgeStyle;curved=1;rounded=0;orthogonalLoop=1;jettySize=auto;html=1;entryX=1;entryY=0.75;entryDx=0;entryDy=0;fontColor=#000000;" edge="1" parent="1" source="8WJbZ5vt_U3ghZ7-BwTl-253" target="8WJbZ5vt_U3ghZ7-BwTl-249">
          <mxGeometry relative="1" as="geometry" />
        </mxCell>
        <mxCell id="8WJbZ5vt_U3ghZ7-BwTl-253" value="外部服务调用的时需要做登陆、鉴权、路由、黑白名单校验、限流降级熔断" style="text;html=1;strokeColor=none;fillColor=none;align=center;verticalAlign=middle;whiteSpace=wrap;rounded=0;fontColor=#000000;" vertex="1" parent="1">
          <mxGeometry x="1961" y="992" width="120" height="66" as="geometry" />
        </mxCell>
        <mxCell id="8WJbZ5vt_U3ghZ7-BwTl-255" value="监控服务集群" style="rounded=1;whiteSpace=wrap;html=1;fillColor=#33FF33;strokeColor=#23445d;" vertex="1" parent="1">
          <mxGeometry x="1595" y="1315" width="120" height="60" as="geometry" />
        </mxCell>
        <mxCell id="8WJbZ5vt_U3ghZ7-BwTl-256" value="日志服务集群" style="rounded=1;whiteSpace=wrap;html=1;fillColor=#FF66FF;strokeColor=#23445d;" vertex="1" parent="1">
          <mxGeometry x="1595" y="1405" width="120" height="60" as="geometry" />
        </mxCell>
        <mxCell id="8WJbZ5vt_U3ghZ7-BwTl-257" value="&lt;h1&gt;&lt;font color=&quot;#ff0000&quot;&gt;Notice&lt;/font&gt;&lt;/h1&gt;&lt;p&gt;架构不是技术的堆砌&lt;br&gt;&lt;/p&gt;&lt;p&gt;有了需求才会有设计，才会推动技术革新&lt;/p&gt;&lt;p&gt;&lt;br&gt;&lt;/p&gt;" style="text;html=1;strokeColor=none;fillColor=none;spacing=5;spacingTop=-20;whiteSpace=wrap;overflow=hidden;rounded=0;fontColor=#000000;" vertex="1" parent="1">
          <mxGeometry x="1961" y="1330" width="150" height="130" as="geometry" />
        </mxCell>
        <mxCell id="8WJbZ5vt_U3ghZ7-BwTl-259" value="" style="edgeStyle=orthogonalEdgeStyle;curved=1;rounded=0;orthogonalLoop=1;jettySize=auto;html=1;fontColor=#FF0000;" edge="1" parent="1" source="8WJbZ5vt_U3ghZ7-BwTl-258" target="8WJbZ5vt_U3ghZ7-BwTl-253">
          <mxGeometry relative="1" as="geometry" />
        </mxCell>
        <mxCell id="8WJbZ5vt_U3ghZ7-BwTl-258" value="内部服务提供给外网使用，比如要开放API、其他三方、ERP等等调用 --&amp;gt; 接入服务器" style="text;html=1;strokeColor=none;fillColor=none;align=center;verticalAlign=middle;whiteSpace=wrap;rounded=0;fontColor=#000000;" vertex="1" parent="1">
          <mxGeometry x="2130" y="992" width="120" height="66" as="geometry" />
        </mxCell>
        <mxCell id="8WJbZ5vt_U3ghZ7-BwTl-262" value="&lt;h1&gt;&lt;font color=&quot;#ff0000&quot;&gt;Dubbo和SpringCloud区别&lt;/font&gt;&lt;/h1&gt;&lt;p&gt;dubbo是阿里巴巴开源的RPC调用框架，在没有人竞争的情况下是不会去做升级进化的，所有停更过一年&lt;/p&gt;&lt;p&gt;springcloud是在dubbo之后由apache基金会开源的一整套微服务解决方案，是生态&lt;/p&gt;&lt;h1&gt;&lt;font color=&quot;#ff0000&quot;&gt;SpringCloud意义在哪里？解决了什么问题？&lt;/font&gt;&lt;/h1&gt;&lt;p&gt;定义了一套微服务解决方案的标准，要使用spring生态就只能去实现和扩展这套标准&lt;/p&gt;&lt;p&gt;&lt;br&gt;&lt;/p&gt;&lt;p&gt;&lt;br&gt;&lt;/p&gt;" style="text;html=1;strokeColor=none;fillColor=none;spacing=5;spacingTop=-20;whiteSpace=wrap;overflow=hidden;rounded=0;fontColor=#000000;" vertex="1" parent="1">
          <mxGeometry x="1961" y="1500" width="309" height="260" as="geometry" />
        </mxCell>
        <mxCell id="8WJbZ5vt_U3ghZ7-BwTl-263" value="&lt;h1&gt;&lt;font color=&quot;#ff0000&quot;&gt;DevOps&lt;/font&gt;&lt;/h1&gt;&lt;p&gt;多人协调开发、自动部署、集成测试、运维、持续交付&lt;/p&gt;" style="text;html=1;strokeColor=none;fillColor=none;spacing=5;spacingTop=-20;whiteSpace=wrap;overflow=hidden;rounded=0;fontColor=#000000;" vertex="1" parent="1">
          <mxGeometry x="1961" y="1780" width="150" height="110" as="geometry" />
        </mxCell>
        <mxCell id="8WJbZ5vt_U3ghZ7-BwTl-266" value="" style="edgeStyle=orthogonalEdgeStyle;curved=1;rounded=0;orthogonalLoop=1;jettySize=auto;html=1;fontColor=#FF0000;" edge="1" parent="1" source="8WJbZ5vt_U3ghZ7-BwTl-264" target="8WJbZ5vt_U3ghZ7-BwTl-265">
          <mxGeometry relative="1" as="geometry" />
        </mxCell>
        <mxCell id="8WJbZ5vt_U3ghZ7-BwTl-275" value="Git命令" style="edgeLabel;html=1;align=center;verticalAlign=middle;resizable=0;points=[];fontColor=#FF0000;" vertex="1" connectable="0" parent="8WJbZ5vt_U3ghZ7-BwTl-266">
          <mxGeometry x="-0.35" y="-4" relative="1" as="geometry">
            <mxPoint x="8" y="-4" as="offset" />
          </mxGeometry>
        </mxCell>
        <mxCell id="8WJbZ5vt_U3ghZ7-BwTl-264" value="微服务1" style="rounded=1;whiteSpace=wrap;html=1;fillColor=#d0cee2;strokeColor=#56517e;" vertex="1" parent="1">
          <mxGeometry x="1763" y="1950" width="86" height="60" as="geometry" />
        </mxCell>
        <mxCell id="8WJbZ5vt_U3ghZ7-BwTl-268" value="" style="edgeStyle=orthogonalEdgeStyle;curved=1;rounded=0;orthogonalLoop=1;jettySize=auto;html=1;fontColor=#FF0000;" edge="1" parent="1" source="8WJbZ5vt_U3ghZ7-BwTl-265" target="8WJbZ5vt_U3ghZ7-BwTl-267">
          <mxGeometry relative="1" as="geometry" />
        </mxCell>
        <mxCell id="8WJbZ5vt_U3ghZ7-BwTl-274" value="webHook" style="edgeLabel;html=1;align=center;verticalAlign=middle;resizable=0;points=[];fontColor=#FF0000;" vertex="1" connectable="0" parent="8WJbZ5vt_U3ghZ7-BwTl-268">
          <mxGeometry x="-0.425" y="-1" relative="1" as="geometry">
            <mxPoint x="7" y="-1" as="offset" />
          </mxGeometry>
        </mxCell>
        <mxCell id="8WJbZ5vt_U3ghZ7-BwTl-282" style="edgeStyle=orthogonalEdgeStyle;curved=1;rounded=0;orthogonalLoop=1;jettySize=auto;html=1;entryX=0;entryY=0.5;entryDx=0;entryDy=0;fontColor=#FF0000;exitX=0.135;exitY=0.983;exitDx=0;exitDy=0;exitPerimeter=0;" edge="1" parent="1" source="8WJbZ5vt_U3ghZ7-BwTl-265" target="8WJbZ5vt_U3ghZ7-BwTl-276">
          <mxGeometry relative="1" as="geometry" />
        </mxCell>
        <mxCell id="8WJbZ5vt_U3ghZ7-BwTl-283" style="edgeStyle=orthogonalEdgeStyle;curved=1;rounded=0;orthogonalLoop=1;jettySize=auto;html=1;entryX=0;entryY=0.5;entryDx=0;entryDy=0;fontColor=#FF0000;exitX=0.125;exitY=1.017;exitDx=0;exitDy=0;exitPerimeter=0;" edge="1" parent="1" source="8WJbZ5vt_U3ghZ7-BwTl-265" target="8WJbZ5vt_U3ghZ7-BwTl-277">
          <mxGeometry relative="1" as="geometry" />
        </mxCell>
        <mxCell id="8WJbZ5vt_U3ghZ7-BwTl-265" value="GitLab代码仓库" style="rounded=1;whiteSpace=wrap;html=1;fillColor=#ffcc99;strokeColor=#36393d;" vertex="1" parent="1">
          <mxGeometry x="1929" y="1950" width="104" height="60" as="geometry" />
        </mxCell>
        <mxCell id="8WJbZ5vt_U3ghZ7-BwTl-270" value="" style="edgeStyle=orthogonalEdgeStyle;curved=1;rounded=0;orthogonalLoop=1;jettySize=auto;html=1;fontColor=#FF0000;" edge="1" parent="1" source="8WJbZ5vt_U3ghZ7-BwTl-267" target="8WJbZ5vt_U3ghZ7-BwTl-269">
          <mxGeometry relative="1" as="geometry" />
        </mxCell>
        <mxCell id="8WJbZ5vt_U3ghZ7-BwTl-278" style="edgeStyle=orthogonalEdgeStyle;curved=1;rounded=0;orthogonalLoop=1;jettySize=auto;html=1;entryX=1;entryY=0.5;entryDx=0;entryDy=0;fontColor=#FF0000;exitX=0.75;exitY=1;exitDx=0;exitDy=0;" edge="1" parent="1" source="8WJbZ5vt_U3ghZ7-BwTl-267" target="8WJbZ5vt_U3ghZ7-BwTl-277">
          <mxGeometry relative="1" as="geometry" />
        </mxCell>
        <mxCell id="8WJbZ5vt_U3ghZ7-BwTl-279" style="edgeStyle=orthogonalEdgeStyle;curved=1;rounded=0;orthogonalLoop=1;jettySize=auto;html=1;entryX=1;entryY=0.5;entryDx=0;entryDy=0;fontColor=#FF0000;exitX=0.75;exitY=1;exitDx=0;exitDy=0;" edge="1" parent="1" source="8WJbZ5vt_U3ghZ7-BwTl-267" target="8WJbZ5vt_U3ghZ7-BwTl-276">
          <mxGeometry relative="1" as="geometry" />
        </mxCell>
        <mxCell id="8WJbZ5vt_U3ghZ7-BwTl-267" value="Jenkins" style="rounded=1;whiteSpace=wrap;html=1;fillColor=#fad9d5;strokeColor=#ae4132;" vertex="1" parent="1">
          <mxGeometry x="2113" y="1950" width="104" height="60" as="geometry" />
        </mxCell>
        <mxCell id="8WJbZ5vt_U3ghZ7-BwTl-272" value="" style="edgeStyle=orthogonalEdgeStyle;curved=1;rounded=0;orthogonalLoop=1;jettySize=auto;html=1;fontColor=#FF0000;" edge="1" parent="1" source="8WJbZ5vt_U3ghZ7-BwTl-269" target="8WJbZ5vt_U3ghZ7-BwTl-271">
          <mxGeometry relative="1" as="geometry" />
        </mxCell>
        <mxCell id="8WJbZ5vt_U3ghZ7-BwTl-269" value="Harbor&lt;br&gt;镜像仓库" style="rounded=1;whiteSpace=wrap;html=1;fillColor=#f8cecc;strokeColor=#b85450;gradientColor=#ea6b66;" vertex="1" parent="1">
          <mxGeometry x="2283" y="1950" width="104" height="60" as="geometry" />
        </mxCell>
        <mxCell id="8WJbZ5vt_U3ghZ7-BwTl-271" value="K8S" style="rounded=1;whiteSpace=wrap;html=1;fillColor=#e6d0de;strokeColor=#996185;gradientColor=#d5739d;" vertex="1" parent="1">
          <mxGeometry x="2283" y="2080" width="104" height="60" as="geometry" />
        </mxCell>
        <mxCell id="8WJbZ5vt_U3ghZ7-BwTl-273" value="CI/CD" style="text;html=1;strokeColor=none;fillColor=none;align=center;verticalAlign=middle;whiteSpace=wrap;rounded=0;fontColor=#FF0000;" vertex="1" parent="1">
          <mxGeometry x="2141" y="1920" width="60" height="30" as="geometry" />
        </mxCell>
        <mxCell id="8WJbZ5vt_U3ghZ7-BwTl-276" value="业务服务器1" style="rounded=1;whiteSpace=wrap;html=1;fillColor=#cce5ff;strokeColor=#36393d;" vertex="1" parent="1">
          <mxGeometry x="2027" y="2057" width="86" height="60" as="geometry" />
        </mxCell>
        <mxCell id="8WJbZ5vt_U3ghZ7-BwTl-277" value="业务服务器2" style="rounded=1;whiteSpace=wrap;html=1;fillColor=#cce5ff;strokeColor=#36393d;" vertex="1" parent="1">
          <mxGeometry x="2027" y="2140" width="86" height="60" as="geometry" />
        </mxCell>
        <mxCell id="8WJbZ5vt_U3ghZ7-BwTl-280" value="ssh脚本" style="text;html=1;strokeColor=none;fillColor=none;align=center;verticalAlign=middle;whiteSpace=wrap;rounded=0;fontColor=#FF0000;" vertex="1" parent="1">
          <mxGeometry x="2157" y="2027" width="60" height="30" as="geometry" />
        </mxCell>
        <mxCell id="8WJbZ5vt_U3ghZ7-BwTl-286" value="mvn编译打包" style="text;html=1;strokeColor=none;fillColor=none;align=center;verticalAlign=middle;whiteSpace=wrap;rounded=0;fontColor=#FF0000;" vertex="1" parent="1">
          <mxGeometry x="1915" y="2027" width="80" height="30" as="geometry" />
        </mxCell>
        <mxCell id="8WJbZ5vt_U3ghZ7-BwTl-294" style="edgeStyle=orthogonalEdgeStyle;curved=1;rounded=0;orthogonalLoop=1;jettySize=auto;html=1;entryX=0;entryY=0.25;entryDx=0;entryDy=0;fontColor=#000000;" edge="1" parent="1" source="8WJbZ5vt_U3ghZ7-BwTl-289" target="8WJbZ5vt_U3ghZ7-BwTl-267">
          <mxGeometry relative="1" as="geometry" />
        </mxCell>
        <mxCell id="8WJbZ5vt_U3ghZ7-BwTl-289" value="&lt;font color=&quot;#000000&quot;&gt;webhook监听到Jenkins代码变动则会通知业务服务器去拉取最新代码进行构建部署&lt;/font&gt;" style="text;html=1;strokeColor=none;fillColor=none;align=center;verticalAlign=middle;whiteSpace=wrap;rounded=0;fontColor=#FF0000;" vertex="1" parent="1">
          <mxGeometry x="1987" y="1910" width="162" height="30" as="geometry" />
        </mxCell>
        <mxCell id="8WJbZ5vt_U3ghZ7-BwTl-296" style="edgeStyle=orthogonalEdgeStyle;curved=1;rounded=0;orthogonalLoop=1;jettySize=auto;html=1;entryX=0.75;entryY=1;entryDx=0;entryDy=0;fontColor=#000000;" edge="1" parent="1" source="8WJbZ5vt_U3ghZ7-BwTl-295" target="8WJbZ5vt_U3ghZ7-BwTl-280">
          <mxGeometry relative="1" as="geometry" />
        </mxCell>
        <mxCell id="8WJbZ5vt_U3ghZ7-BwTl-295" value="&lt;font color=&quot;#000000&quot;&gt;在业务服务器端生成RSA堆成密钥，配置在Jenkins上，通过这个密钥才能请求业务服务器发送ss脚本&lt;/font&gt;" style="text;html=1;strokeColor=none;fillColor=none;align=center;verticalAlign=middle;whiteSpace=wrap;rounded=0;fontColor=#FF0000;" vertex="1" parent="1">
          <mxGeometry x="2141" y="2160" width="199" height="60" as="geometry" />
        </mxCell>
        <mxCell id="8WJbZ5vt_U3ghZ7-BwTl-297" value="&lt;font color=&quot;#000000&quot;&gt;Jenkins将业务代码打包成镜像后推送到Hrabor镜像服务器上&lt;/font&gt;" style="text;html=1;strokeColor=none;fillColor=none;align=center;verticalAlign=middle;whiteSpace=wrap;rounded=0;fontColor=#FF0000;" vertex="1" parent="1">
          <mxGeometry x="2248" y="1900" width="162" height="40" as="geometry" />
        </mxCell>
      </root>
    </mxGraphModel>
  </diagram>
</mxfile>
